<svg xmlns="http://www.w3.org/2000/svg" viewBox="0 0 512 512"><path fill="#ccd2db" d="M416.1 153c.4-23.4-1.6-35.5-1.6-35.5s-19.1-5.6-73.9-19.8C282.7 82.8 256 77.4 256 77.4s-26.7 5.4-84.7 20.3l-73.9 19.8s-2 12-1.5 35.2c-.1 3.8-.1 8.1 0 13-.5 25.1 1.7 70.8 17.3 135.2C133.3 383.4 199 436.3 256 456c57-19.7 122.7-72.6 142.8-155.1 15.6-64.1 17.8-109.8 17.3-134.9.1-4.8.1-9.1 0-13zm-89 208.3c15.6-19 28.3-42.1 34.9-69.4 13.6-55.8 16.3-96.1 16.4-119.3-.1 0-.2-.1-.3-.1.2-4.7.3-9.1.3-12.9-.1 0-.2-.1-.3-.1.1-1.8.1-3.5.2-5.1l17.2 4.7v.6c-1 25.3-4.8 62.5-16.5 110.4-9.1 37.7-28.7 68-51.9 91.2zM116.4 159.4v-.2l60-15.8c44.1-11.4 70.2-17.2 79.6-19.2v284.4C209 390 150.9 344 132.9 270.2c-11.7-48.2-15.5-85.5-16.5-110.8z"/><path d="M331.2 112.9L256 94.6V368c41.7-18.3 90.5-59.4 106.1-123.4 13.6-55.8 16.3-96.1 16.4-119.3l-47.3-12.4zm9.5-36.6C282.7 61.4 256 56 256 56s-26.7 5.4-84.7 20.3L97.4 96.1s-9 55.3 15.8 157.5C133.3 336 199 389 256 408.7 313 389 378.7 336 398.8 253.6c24.9-102.2 15.8-157.5 15.8-157.5s-19.2-5.6-73.9-19.8zM256 387c-47-18.4-105.1-64.4-123.1-138.2-16.8-69.1-17.4-116-16.5-136.9l60-15.8c44.1-11.4 70.2-17.2 79.6-19.2 9.4 2 35.4 7.8 79.6 19.2l59.9 15.8c1 21 .3 67.8-16.5 136.9-17.9 73.8-75.9 119.7-123 138.2z" fill="#fff"/></svg>