<svg xmlns="http://www.w3.org/2000/svg" viewBox="0 0 48 48"><path fill="#d8d7da" d="M8.3 3.3h31.4c.9 0 1.7.7 1.7 1.7v41.4c0 .9-.7 1.7-1.7 1.7H8.3c-.9 0-1.7-.7-1.7-1.7V5c0-.9.8-1.7 1.7-1.7z"/><path fill="#e6e7e8" d="M5 0h31.4c.9 0 1.7.7 1.7 1.7V43c0 .9-.7 1.7-1.7 1.7H5c-.9 0-1.7-.7-1.7-1.7V1.7C3.3.7 4.1 0 5 0z"/><path fill="#c6c5ca" d="M6.6 46.3H38c.9 0 1.7-.7 1.7-1.7V3.3H38V43c0 .9-.7 1.7-1.7 1.7H6.6v1.6z"/><path fill="#ff5023" d="M11.6 0v5.8L9.9 3.3 8.3 5.8V0h3.3z"/><path fill="#acabb1" d="M38.1,30.6h1.7v1.7h-1.7V30.6z"/><path fill="#c6c5ca" d="M39.7,30.6h1.7v1.7h-1.7V30.6z"/><path fill="#e0e0e2" d="M38.1 16.3V43c0 .9-.7 1.7-1.7 1.7H7.9c6-3.5 11.7-7.7 16.8-12.4.6-.5 1.2-1.1 1.8-1.7 4.4-4.2 8.3-9 11.6-14.3z"/><path fill="#d1d3d4" d="M38.1 30.6v1.7H13.2c-.9 0-1.7-.7-1.7-1.7h26.6z"/><path fill="#bcbec0" d="M38.1 30.6v1.7H24.7c.6-.5 1.2-1.1 1.8-1.7h11.6z"/><path fill="#96c8ef" d="M11.6 10.8H43c.9 0 1.7.7 1.7 1.7V29c0 .9-.7 1.7-1.7 1.7H11.6c-.9 0-1.7-.7-1.7-1.7V12.4c0-.9.8-1.6 1.7-1.6z"/><path d="M18.2 15.7h-1.7v9.1c0 .5.4.8.8.8h4.1V24h-3.3v-8.3zm9.1 0h-1.7c-1.4 0-2.5 1.1-2.5 2.5v5c0 1.4 1.1 2.5 2.5 2.5h1.7c1.4 0 2.5-1.1 2.5-2.5v-5c0-1.4-1.1-2.5-2.5-2.5zm.8 7.5c0 .5-.4.8-.8.8h-1.7c-.5 0-.8-.4-.8-.8v-5c0-.5.4-.8.8-.8h1.7c.5 0 .8.4.8.8v5zm9.1-3.3h-2.5v1.7h1.7v1.7c0 .5-.4.8-.8.8h-1.7c-.5 0-.8-.4-.8-.8v-5c0-.5.4-.8.8-.8h1.7c.5 0 .8.4.8.8h1.7c0-1.4-1.1-2.5-2.5-2.5h-1.7c-1.4 0-2.5 1.1-2.5 2.5v5c0 1.4 1.1 2.5 2.5 2.5h1.7c1.4 0 2.5-1.1 2.5-2.5v-2.5c0-.6-.4-.9-.9-.9z" fill="#fff"/></svg>