<svg xmlns="http://www.w3.org/2000/svg" viewBox="0 0 48 48" xmlns:v="https://vecta.io/nano"><path fill="#c48958" d="M24,14l-1.9,12.4L24,48l18.6-6.2V20.2L24,14z"/><path fill="#e3a76f" d="M5.4,20.2v21.6L24,48V14L5.4,20.2z"/><path d="M22.6 0h2.8v9.4h-2.8V0zM9.4 4.3l2.4-1.4 4.7 8.1-2.4 1.4-4.7-8.1zM31.5 11l4.7-8.1 2.4 1.4-4.7 8.1-2.4-1.4z" fill="#ffda44"/><path fill="#f2d1a5" d="M18.6 34.9l5.4-8.5-18.6-6.2L0 28.7l18.6 6.2z"/><path fill="#e3a76f" d="M29.4 34.9L24 26.4l18.6-6.2 5.4 8.5-18.6 6.2z"/></svg>