<svg xmlns="http://www.w3.org/2000/svg" viewBox="0 0 48 48" xmlns:v="https://vecta.io/nano"><path fill="#e8834d" d="M31.6 5.1c-.1-.1-.8-.6-2.1-1.1-1.7-.7-3.6-1-5.5-1s-3.8.4-5.5 1c-1.3.5-2 1.1-2.1 1.1-.4.3-.6.8-.6 1.3v2.5l1.6.8 1.6-.8V7.3c.9-.4 2.6-1.1 5-1.1s4.2.7 5 1.1v1.6l1.6.8 1.6-.8V6.4c0-.5-.2-1-.6-1.3h0z"/><path d="M15.8 8.9v1.7l1.6.8 1.6-.8V8.9h-3.2zm16.4 0H29v1.7l1.6.8 1.6-.8V8.9z" fill="#d66e41"/><path fill="#365e7d" d="M1.2,28v14c0,1.7,1.3,3,3,3h39.5c1.7,0,3-1.3,3-3V28H1.2z"/><path fill="#2b4d66" d="M1.2 26.2V28c2.5 2 9.1 5.8 22.8 5.8S44.3 30 46.8 28v-1.7l-45.6-.1h0z"/><path fill="#407093" d="M1.1 25.2c2.4 2 9 5.9 22.9 5.9s20.5-4 22.9-5.9c.7-.6 1.1-2.3 1.1-3.2v-8.4c0-1.7-1.3-3-3-3H3c-1.7 0-3 1.3-3 3V22c0 .9.4 2.6 1.1 3.2z"/><path fill="#365e7d" d="M46.9 24.4c-2.4 2-9 5.9-22.9 5.9s-20.5-4-22.9-5.9C.4 23.8 0 22.9 0 22v1.7c0 .9.4 1.8 1.1 2.3 2.4 2 9 5.9 22.9 5.9s20.5-4 22.9-5.9c.7-.6 1.1-1.4 1.1-2.3V22c0 .9-.4 1.8-1.1 2.4z"/><path fill="#ffe27a" d="M24 35c1.6 0 2.8-1.2 2.8-3.7v-1.7a.94.94 0 0 0-1-1h-3.6a.94.94 0 0 0-1 1v1.7c0 2.5 1.2 3.7 2.8 3.7z"/><path fill="#f9cf58" d="M24 34.1c-1.6 0-2.8-1.3-2.8-2.8V33c0 1.6 1.3 2.8 2.8 2.8s2.8-1.3 2.8-2.8v-1.7a2.73 2.73 0 0 1-2.8 2.8h0z"/></svg>