<svg xmlns="http://www.w3.org/2000/svg" viewBox="0 0 360 360"><g fill="#e8e8e8"><path d="M341.5 0h-323C8.3 0 0 8.3 0 18.5v323C0 351.7 8.3 360 18.5 360h323c10.2 0 18.5-8.3 18.5-18.5v-323C360 8.3 351.7 0 341.5 0z"/><path d="M59.2,101.3h241.7v157.2H59.2V101.3z"/><path d="M61.9,258.8l77.9-77l32.7,32.3l69.7-68.9l58.6,58v55.6H61.9z"/><circle cx="110" cy="142.4" r="26.6"/></g><g stroke="#303030" stroke-width="5"><g stroke-miterlimit="10"><path fill="#22a7f0" d="M59.2,101.3h241.7v157.2H59.2V101.3z"/><path fill="#3edc81" d="M61.9 258.8l77.9-77 32.7 32.3 69.7-68.9 58.6 58v55.6H61.9z"/></g><circle fill="#fff" cx="110" cy="142.4" r="26.6"/></g><path fill="#333232" d="M180 30C97.1 30 30 97.1 30 180s67.1 150 150 150 150-67.2 150-150S262.8 30 180 30zm0 270c-66.3 0-120-53.7-120-120 0-27.8 9.5-53.2 25.3-73.5l168.3 168.3C233.2 290.5 207.8 300 180 300zm94.8-46.5L106.5 85.3C126.8 69.5 152.3 60 180 60c66.3 0 120 53.7 120 120 0 27.8-9.5 53.2-25.2 73.5z"/></svg>