<svg xmlns="http://www.w3.org/2000/svg" viewBox="0 0 48 48"><path fill="#e6e9ed" d="M11.2 28.6v13.9h-7v-3.9H.4V3.9h10.8v24.7z"/><path d="M11.2 15.5H5.8c-.4 0-.8-.3-.8-.8 0-.4.3-.8.8-.8h5.4c.4 0 .8.3.8.8 0 .4-.3.8-.8.8zm0 4.6H5.8c-.4 0-.8-.3-.8-.8 0-.4.3-.8.8-.8h5.4c.4 0 .8.3.8.8s-.3.8-.8.8zm0 4.7H5.8c-.4 0-.8-.4-.8-.8s.3-.8.8-.8h5.4c.4 0 .8.3.8.8s-.3.8-.8.8zm0 4.6H5.8c-.4 0-.8-.3-.8-.8 0-.4.3-.8.8-.8h5.4c.4 0 .8.3.8.8s-.3.8-.8.8z" fill="#ccd1d9"/><path fill="#f5f7fa" d="M4.3 38.7v3.9L.4 38.7h3.9z"/><path fill="#f6bb42" d="M14.3,45.7h27.1v-2.3h0.8c1.3,0,2.3-1,2.3-2.3v4.6c0,1.3-1,2.3-2.3,2.3H13.5c-1.3,0-2.3-1-2.3-2.3 s1-2.3,2.3-2.3h0.8V45.7z"/><path fill="#f5f7fa" d="M14.3,43.4h27.1v2.3H14.3V43.4z"/><path fill="#f6bb42" d="M47.6 3.9V14l-3.1 3V3.9h3.1z"/><path fill="#ffce54" d="M42.2 0H13.5a2.26 2.26 0 0 0-2.3 2.3v43.4a2.26 2.26 0 0 1 2.3-2.3h28.6a2.26 2.26 0 0 0 2.3-2.3V2.3C44.5 1 43.5 0 42.2 0zM21.3 20.9a2.26 2.26 0 0 1-2.3-2.3h4.6a2.26 2.26 0 0 1-2.3 2.3zm13.9 0a2.26 2.26 0 0 1-2.3-2.3h4.6a2.26 2.26 0 0 1-2.3 2.3z"/><g fill="#545c66"><path d="M23.6 19.4c-.3 0-.6-.2-.7-.5l-2.3-7c-.1-.4.1-.8.5-1 .4-.1.8.1 1 .5l2.3 7c.1.4-.1.8-.5 1h-.3zm4.7 8.5c-.4 0-.8-.3-.8-.8V9.3c0-.4.3-.8.8-.8.4 0 .8.3.8.8v17.8c-.1.4-.4.8-.8.8zm4.6-8.5h-.2c-.4-.1-.6-.6-.5-1l2.3-7c.1-.4.6-.6 1-.5s.6.6.5 1l-2.3 7c-.2.3-.5.5-.8.5z"/><path d="M37.5 19.4c-.3 0-.6-.2-.7-.5l-2.3-7c-.1-.4.1-.8.5-1 .4-.1.8.1 1 .5l2.3 7c.1.4-.1.8-.5 1h-.3z"/></g><path fill="#656d78" d="M34.4 27.9H22.1c-.4 0-.8-.3-.8-.8 0-.4.3-.8.8-.8h12.4c.4 0 .8.3.8.8-.1.4-.4.8-.9.8z"/><path d="M37.5 33.3H19c-.4 0-.8-.3-.8-.8 0-.4.3-.8.8-.8h18.6c.4 0 .8.3.8.8-.1.5-.4.8-.9.8zm-4.6 2.3h-9.3c-.4 0-.8-.3-.8-.8 0-.4.3-.8.8-.8h9.3c.4 0 .8.3.8.8s-.4.8-.8.8z" fill="#f6bb42"/><path fill="#545c66" d="M19 19.4h-.2c-.4-.1-.6-.6-.5-1l2.3-7c.1-.4.6-.6 1-.5s.6.6.5 1l-2.3 7c-.2.3-.5.5-.8.5z"/><path d="M23.6 17.8H19c-.4 0-.8.3-.8.8a3.12 3.12 0 0 0 3.1 3.1 3.12 3.12 0 0 0 3.1-3.1c0-.4-.4-.8-.8-.8zm13.9 0h-4.6c-.4 0-.8.3-.8.8a3.12 3.12 0 0 0 3.1 3.1 3.12 3.12 0 0 0 3.1-3.1c0-.4-.3-.8-.8-.8zm-2.3-5.4H21.3c-.4 0-.8-.3-.8-.8 0-.4.3-.8.8-.8h13.9c.4 0 .8.3.8.8s-.4.8-.8.8z" fill="#656d78"/></svg>