<svg xmlns="http://www.w3.org/2000/svg" viewBox="0 0 48 48"><path fill="#a9dbf5" d="M45.1 41.1H2.9c-1.6 0-2.9-1.3-2.9-2.9V12.9h48v25.4c0 1.5-1.3 2.8-2.9 2.8z"/><path fill="#88c3e0" d="M45.1 12.9v28.3c1.6 0 2.9-1.3 2.9-2.9V12.9h-2.9z"/><path d="M9.7 21.9c-.3-.3-.7-.3-1 0l-4.4 4.4c-.3.3-.3.7 0 1l4.3 4.3c.1.1.3.2.5.2s.4-.1.5-.2c.3-.3.3-.7 0-1l-3.8-3.8 3.9-3.9c.3-.2.3-.7 0-1h0zm15.1 4.4l-4.4-4.4c-.3-.3-.7-.3-1 0s-.3.7 0 1l3.9 3.9-3.8 3.8c-.3.3-.3.7 0 1 .1.1.3.2.5.2s.4-.1.5-.2l4.3-4.3c.3-.3.3-.7 0-1h0zm-7.4-7c-.4-.1-.8 0-.9.4l-5.1 13.6c-.1.4 0 .8.4.9h.2c.3 0 .6-.2.7-.5l5.1-13.6c.2-.2 0-.6-.4-.8h0z" fill="#43809f"/><path fill="#29cef6" d="M36.2 22h-4.5c-.8 0-1.4-.6-1.4-1.4s.6-1.4 1.4-1.4h4.5c.8 0 1.4.6 1.4 1.4.1.7-.6 1.4-1.4 1.4z"/><path fill="#ffc328" d="M43.7 27.8h-12c-.8 0-1.4-.6-1.4-1.4s.6-1.4 1.4-1.4h12c.8 0 1.4.6 1.4 1.4 0 .7-.6 1.4-1.4 1.4z"/><path fill="#f78e36" d="M40.1 33.5h-8.4c-.8 0-1.4-.6-1.4-1.4s.6-1.4 1.4-1.4h8.4c.8 0 1.4.6 1.4 1.4s-.6 1.4-1.4 1.4z"/><path fill="#43809f" d="M48 13.9H0V9.8c0-1.6 1.3-2.9 2.9-2.9h42.2c1.6 0 2.9 1.3 2.9 2.9v4.1z"/><path fill="#3a7190" d="M45.1 6.9v7H48V9.8c0-1.6-1.3-2.9-2.9-2.9z"/><circle fill="#29cef6" cx="4.6" cy="10.4" r="1.4"/><circle fill="#f3f3f3" cx="10.3" cy="10.4" r="1.4"/><circle fill="#f78e36" cx="15.9" cy="10.4" r="1.4"/></svg>