<svg xmlns="http://www.w3.org/2000/svg" viewBox="0 0 48 48"><path fill="#f29c1f" d="M39.7 12.4l7.6 5.3a1.75 1.75 0 0 1 .7 1.4v26.4c0 1.4-1.1 2.5-2.5 2.5h-43C1.1 48 0 46.9 0 45.5V19.1c0-.5.3-1 .7-1.4l7.6-5.3h31.4z"/><path fill="#ecf0f1" d="M39.7.8v24l-10.4 8.3-3.3-2.6c-1.2-1-2.9-1-4.1 0l-3.3 2.6-10.3-8.3V.8c0-.4.3-.8.8-.8h29.8c.5 0 .8.4.8.8h0z"/><path fill="#f0c419" d="M18.7 33.1L.8 47.3c-.5-.4-.8-1.1-.8-1.8V19.1c0-.3.1-.5.2-.7l8.1 6.5 10.4 8.2z"/><path fill="#f3d55b" d="M47.2 47.3c-.5.4-1.1.7-1.7.7h-43a2.34 2.34 0 0 1-1.7-.7l17.9-14.2 3.3-2.6c1.2-1 2.9-1 4.1 0l3.3 2.6 17.8 14.2z"/><path fill="#f0c419" d="M48 19.1v26.4c0 .7-.3 1.4-.8 1.8L29.3 33.1l10.4-8.3 8.1-6.5c.1.3.2.5.2.8h0z"/><path d="M34.8 6.6c-.4 0-.7-.3-.8-.7s.2-.8.5-.9c.4-.1.8 0 1 .4s.7.5 1.1.3.5-.7.3-1.1c-.6-1-1.9-1.5-3-1.1S32.1 5 32.3 6.2s1.2 2.1 2.4 2.1c.4 0 .7.3.8.7s-.1.7-.5.9c-.4.1-.8 0-1-.4s-.7-.5-1.1-.3-.5.7-.3 1.1c.6 1 1.9 1.5 3 1.1s1.8-1.6 1.6-2.8a2.47 2.47 0 0 0-2.4-2zm-4.9-3.3c-.5 0-.9.3-.9.7l-.5 3.9-.4-.9c-.2-.3-.4-.4-.7-.4s-.6.2-.7.4l-.4.9-.7-3.9c0-.3-.2-.6-.5-.7s-.6-.1-.8.1-.3.5-.3.8l.8 6.6a.68.68 0 0 0 .7.7c.4.1.7-.1.9-.4l.9-1.8.9 1.8c.1.3.4.5.7.5h.1c.4-.1.6-.4.7-.7l.8-6.6c.2-.5-.2-.9-.6-1zm-15 0c-.5 0-.8.4-.8.8v3.1l-1.7-3.5c-.2-.3-.6-.5-.9-.4-.4.1-.6.4-.6.8v6.6c0 .5.4.8.8.8.5 0 .8-.4.8-.8V7.6l1.7 3.5c.1.3.4.5.7.5h.2c.4-.1.6-.4.6-.8V4.1c0-.4-.3-.8-.8-.8zM21.5 5c.5 0 .8-.4.8-.8s-.3-.9-.8-.9h-3.3c-.5 0-.8.4-.8.8v6.6c0 .5.4.8.8.8h3.3c.5 0 .8-.4.8-.8 0-.5-.4-.8-.8-.8H19V8.3h.8c.5 0 .8-.4.8-.8s-.4-.8-.8-.8H19V5h2.5z" fill="#35495e"/><path fill="#3b97d3" d="M12.4 14.1h23.2c.5 0 .8.4.8.8v3.3c0 .5-.4.8-.8.8H12.4c-.5 0-.8-.4-.8-.8v-3.3c0-.5.4-.8.8-.8z"/><path d="M36.4 23.2H11.6c-.5 0-.8-.4-.8-.8 0-.5.4-.8.8-.8h24.8c.5 0 .8.4.8.8s-.3.8-.8.8zm-2.5 3.3H14.1c-.5 0-.8-.4-.8-.8s.4-.8.8-.8H34c.5 0 .8.4.8.8s-.4.8-.9.8z" fill="#547580"/><path d="M44.7 39.7c-.5 0-.8-.4-.8-.8V26.5c0-.5.4-.8.8-.8s.8.4.8.8v12.4c0 .5-.4.8-.8.8zm-41.4 0c-.5 0-.8-.4-.8-.8V26.5c0-.5.4-.8.8-.8s.8.4.8.8v12.4c0 .5-.3.8-.8.8z" fill="#f3d55b"/><path fill="#f9eab0" d="M32.3 45.5H15.7c-.5 0-.8-.4-.8-.8s.4-.8.8-.8h16.6c.5 0 .8.4.8.8s-.4.8-.8.8z"/></svg>