<svg xmlns="http://www.w3.org/2000/svg" xmlns:xlink="http://www.w3.org/1999/xlink" viewBox="0 0 750 500"><style><![CDATA[.B{fill:none}.C{stroke:#fff}.D{opacity:.5}.E{stroke-miterlimit:10}.F{opacity:.8}.G{stroke-linecap:round}.H{stroke-width:3}.I{stroke-linejoin:round}.J{stroke-width:2}.K{stroke-width:2.122}.L{stroke-width:.813}]]></style><linearGradient id="A" gradientUnits="userSpaceOnUse" x1="65.265" y1="-59.735" x2="654.135" y2="529.135"><stop offset="0" stop-color="#5db3f4"/><stop offset=".515" stop-color="#268fef"/><stop offset="1" stop-color="#007bff"/></linearGradient><path fill="url(#A)" d="M0 0h750v500H0z"/><defs><path id="B" d="M0 0h750v500H0z"/><path id="C" d="M28.7 23.3a1.79 1.79 0 1 1-3.6 0 1.79 1.79 0 0 1 1.8-1.8c1 .1 1.8.9 1.8 1.8z"/><path id="D" d="M28.7 69.3a1.79 1.79 0 1 1-3.6 0 1.79 1.79 0 1 1 3.6 0z"/><path id="E" d="M621.3 291.2a1.79 1.79 0 1 1 0-3.6 1.79 1.79 0 0 1 1.8 1.8c-.1 1-.8 1.8-1.8 1.8z"/><path id="F" d="M606 398.3a1.79 1.79 0 1 1 0-3.6 1.79 1.79 0 0 1 1.8 1.8c-.1 1-.9 1.8-1.8 1.8z"/><path id="G" d="M443.9 363.6c0 2.3-1.8 4.1-4.1 4.1s-4.1-1.8-4.1-4.1 1.8-4.1 4.1-4.1c2.3.1 4.1 1.9 4.1 4.1z"/><path id="H" d="M265.5 420.4c2.4-2.4 6.7 1.8 9.1-.6s-1.8-6.7.6-9.1 6.7 1.8 9.1-.6-1.8-6.7.6-9.1 6.7 1.8 9.1-.6-1.8-6.7.6-9.1 6.7 1.8 9.1-.6"/></defs><clipPath id="I"><use xlink:href="#B"/></clipPath><g clip-path="url(#I)"><g fill="#fff" class="D"><use xlink:href="#C"/><circle cx="42.2" cy="23.3" r="1.8"/><circle cx="57.5" cy="23.3" r="1.8"/><path d="M74.6 23.3a1.79 1.79 0 1 1-3.6 0 1.79 1.79 0 0 1 1.8-1.8c1 .1 1.8.9 1.8 1.8z"/><circle cx="88.1" cy="23.3" r="1.8"/><circle cx="103.4" cy="23.3" r="1.8"/><circle cx="118.7" cy="23.3" r="1.8"/><circle cx="134" cy="23.3" r="1.8"/><path d="M28.7 38.6a1.79 1.79 0 1 1-3.6 0 1.79 1.79 0 0 1 1.8-1.8c1 .1 1.8.9 1.8 1.8z"/><circle cx="42.2" cy="38.6" r="1.8"/><circle cx="57.5" cy="38.6" r="1.8"/><path d="M74.6 38.6a1.79 1.79 0 1 1-3.6 0 1.79 1.79 0 0 1 1.8-1.8c1 .1 1.8.9 1.8 1.8z"/><circle cx="88.1" cy="38.6" r="1.8"/><circle cx="103.4" cy="38.6" r="1.8"/><circle cx="118.7" cy="38.6" r="1.8"/><circle cx="134" cy="38.6" r="1.8"/><path d="M28.7 53.9a1.79 1.79 0 1 1-3.6 0 1.79 1.79 0 0 1 1.8-1.8c1 .1 1.8.9 1.8 1.8z"/><circle cx="42.2" cy="53.9" r="1.8"/><circle cx="57.5" cy="53.9" r="1.8"/><path d="M74.6 53.9a1.79 1.79 0 1 1-3.6 0 1.79 1.79 0 0 1 1.8-1.8c1 .1 1.8.9 1.8 1.8z"/><circle cx="88.1" cy="53.9" r="1.8"/><circle cx="103.4" cy="53.9" r="1.8"/><circle cx="118.7" cy="53.9" r="1.8"/><circle cx="134" cy="53.9" r="1.8"/><use xlink:href="#D"/><circle cx="42.2" cy="69.3" r="1.8"/><circle cx="57.5" cy="69.3" r="1.8"/><path d="M74.6 69.3a1.79 1.79 0 1 1-3.6 0 1.79 1.79 0 1 1 3.6 0z"/><circle cx="88.1" cy="69.3" r="1.8"/><circle cx="103.4" cy="69.3" r="1.8"/><circle cx="118.7" cy="69.3" r="1.8"/><circle cx="134" cy="69.3" r="1.8"/><path d="M28.7 84.6a1.79 1.79 0 1 1-3.6 0 1.79 1.79 0 1 1 3.6 0z"/><circle cx="42.2" cy="84.6" r="1.8"/><circle cx="57.5" cy="84.6" r="1.8"/><path d="M74.6 84.6a1.79 1.79 0 1 1-3.6 0 1.79 1.79 0 1 1 3.6 0z"/><circle cx="88.1" cy="84.6" r="1.8"/><circle cx="103.4" cy="84.6" r="1.8"/><circle cx="118.7" cy="84.6" r="1.8"/><circle cx="134" cy="84.6" r="1.8"/><path d="M28.7 99.9a1.79 1.79 0 1 1-3.6 0 1.79 1.79 0 1 1 3.6 0z"/><circle cx="42.2" cy="99.9" r="1.8"/><circle cx="57.5" cy="99.9" r="1.8"/><path d="M74.6 99.9a1.79 1.79 0 1 1-3.6 0 1.79 1.79 0 1 1 3.6 0z"/><circle cx="88.1" cy="99.9" r="1.8"/><circle cx="103.4" cy="99.9" r="1.8"/><circle cx="118.7" cy="99.9" r="1.8"/><circle cx="134" cy="99.9" r="1.8"/></g><g fill="#fff" class="D"><circle cx="636.6" cy="289.4" r="1.8"/><circle cx="636.6" cy="304.7" r="1.8"/><circle cx="636.6" cy="320" r="1.8"/><circle cx="636.6" cy="335.3" r="1.8"/><circle cx="636.6" cy="350.6" r="1.8"/><circle cx="636.6" cy="365.9" r="1.8"/><circle cx="636.6" cy="381.3" r="1.8"/><path d="M636.6 398.3a1.79 1.79 0 1 1 0-3.6 1.79 1.79 0 1 1 0 3.6z"/><use xlink:href="#E"/><path d="M621.3 306.5a1.8 1.8 0 1 1 0-3.6 1.79 1.79 0 0 1 1.8 1.8c-.1 1-.8 1.8-1.8 1.8zm0 15.3a1.8 1.8 0 1 1 0-3.6 1.79 1.79 0 0 1 1.8 1.8c-.1 1-.8 1.8-1.8 1.8zm0 15.3a1.8 1.8 0 1 1 0-3.6 1.79 1.79 0 0 1 1.8 1.8c-.1 1-.8 1.8-1.8 1.8zm0 15.3a1.8 1.8 0 1 1 0-3.6 1.79 1.79 0 0 1 1.8 1.8c-.1 1-.8 1.8-1.8 1.8zm0 15.3a1.8 1.8 0 1 1 0-3.6 1.79 1.79 0 0 1 1.8 1.8c-.1 1-.8 1.8-1.8 1.8zm0 15.3a1.8 1.8 0 1 1 0-3.6 1.79 1.79 0 0 1 1.8 1.8c-.1 1-.8 1.8-1.8 1.8zm0 15.3a1.8 1.8 0 1 1 0-3.6 1.79 1.79 0 0 1 1.8 1.8c-.1 1-.8 1.8-1.8 1.8z"/><circle cx="606" cy="289.4" r="1.8"/><circle cx="606" cy="304.7" r="1.8"/><circle cx="606" cy="320" r="1.8"/><circle cx="606" cy="335.3" r="1.8"/><circle cx="606" cy="350.6" r="1.8"/><circle cx="606" cy="365.9" r="1.8"/><circle cx="606" cy="381.3" r="1.8"/><use xlink:href="#F"/><circle cx="590.7" cy="289.4" r="1.8"/><circle cx="590.7" cy="304.7" r="1.8"/><circle cx="590.7" cy="320" r="1.8"/><circle cx="590.7" cy="335.3" r="1.8"/><circle cx="590.7" cy="350.6" r="1.8"/><circle cx="590.7" cy="365.9" r="1.8"/><circle cx="590.7" cy="381.3" r="1.8"/><path d="M590.7 398.3a1.79 1.79 0 1 1 0-3.6 1.79 1.79 0 0 1 1.8 1.8c-.1 1-.9 1.8-1.8 1.8z"/><circle cx="575.4" cy="289.4" r="1.8"/><circle cx="575.4" cy="304.7" r="1.8"/><circle cx="575.4" cy="320" r="1.8"/><circle cx="575.4" cy="335.3" r="1.8"/><circle cx="575.4" cy="350.6" r="1.8"/><circle cx="575.4" cy="365.9" r="1.8"/><circle cx="575.4" cy="381.3" r="1.8"/><path d="M575.4 398.3a1.79 1.79 0 1 1 0-3.6 1.79 1.79 0 0 1 1.8 1.8c-.1 1-.9 1.8-1.8 1.8z"/><circle cx="560.1" cy="289.4" r="1.8"/><circle cx="560.1" cy="304.7" r="1.8"/><circle cx="560.1" cy="320" r="1.8"/><circle cx="560.1" cy="335.3" r="1.8"/><circle cx="560.1" cy="350.6" r="1.8"/><circle cx="560.1" cy="365.9" r="1.8"/><circle cx="560.1" cy="381.3" r="1.8"/><path d="M560.1 398.3a1.79 1.79 0 1 1 0-3.6 1.79 1.79 0 0 1 1.8 1.8c-.1 1-.9 1.8-1.8 1.8z"/></g><g fill="#fff" class="D"><path d="M441.2 60.3a1.8 1.8 0 1 1-3.6 0 1.8 1.8 0 1 1 3.6 0zm15.3 0a1.8 1.8 0 1 1-3.6 0 1.8 1.8 0 1 1 3.6 0zm15.3 0a1.8 1.8 0 1 1-3.6 0 1.8 1.8 0 1 1 3.6 0zm-30.6 15.3a1.8 1.8 0 1 1-3.6 0 1.8 1.8 0 1 1 3.6 0zm15.3 0a1.8 1.8 0 1 1-3.6 0 1.8 1.8 0 1 1 3.6 0zm15.3 0a1.8 1.8 0 1 1-3.6 0 1.8 1.8 0 1 1 3.6 0zm-30.6 15.3a1.8 1.8 0 1 1-3.6 0 1.8 1.8 0 1 1 3.6 0zm15.3 0a1.8 1.8 0 1 1-3.6 0 1.8 1.8 0 1 1 3.6 0zm15.3 0a1.8 1.8 0 1 1-3.6 0 1.8 1.8 0 1 1 3.6 0z"/></g><g fill="#fff" class="D"><path d="M298.3 196.2a1.79 1.79 0 1 1-3.6 0 1.79 1.79 0 0 1 1.8-1.8c1 .1 1.8.9 1.8 1.8z"/><circle cx="311.8" cy="196.2" r="1.8"/><circle cx="327.1" cy="196.2" r="1.8"/><path d="M298.3 211.6a1.79 1.79 0 1 1-3.6 0 1.79 1.79 0 1 1 3.6 0z"/><circle cx="311.8" cy="211.6" r="1.8"/><circle cx="327.1" cy="211.6" r="1.8"/><path d="M298.3 226.9a1.8 1.8 0 1 1-3.6 0 1.8 1.8 0 1 1 3.6 0zm15.3 0a1.8 1.8 0 1 1-3.6 0 1.8 1.8 0 1 1 3.6 0zm15.3 0a1.8 1.8 0 1 1-3.6 0 1.8 1.8 0 1 1 3.6 0z"/></g><g class="B C D E K"><path d="M584.8 1.3l-64.5 64.5m60.3-68.7l-64.5 64.5m60.3-68.7l-64.5 64.5m60.3-68.7l-64.5 64.5M568-15.5L503.5 49m60.3-68.7l-64.4 64.5m60.2-68.7l-64.4 64.5M555.5-28L491 36.4m60.3-68.6l-64.5 64.4m60.3-68.6l-64.5 64.5m60.3-68.7l-64.5 64.5m60.3-68.7l-64.5 64.5M534.5-49L470 15.5m60.3-68.7l-64.5 64.5m60.3-68.7L461.7 7.1m60.2-68.7L457.5 2.9m60.3-68.7L453.3-1.3m60.3-68.6L449.1-5.5m60.3-68.6L444.9-9.7m60.3-68.6l-64.5 64.5M501-82.5L436.5-18"/></g><g class="B C D E K"><path d="M458.3 523.2l-64.5 64.5m60.3-68.6l-64.5 64.4m60.3-68.6l-64.4 64.4m60.2-68.6l-64.4 64.5m60.3-68.7L377.1 571m60.3-68.7l-64.5 64.5m60.3-68.7l-64.5 64.5m60.3-68.7l-64.5 64.5m60.3-68.7l-64.5 64.5m60.3-68.7L356.1 550m60.3-68.6l-64.5 64.4m60.3-68.6l-64.5 64.4M408 473l-64.4 64.5m60.2-68.7l-64.4 64.5m60.3-68.7l-64.5 64.5m60.3-68.7L331 524.9m60.3-68.7l-64.5 64.5m60.3-68.7l-64.5 64.5m60.3-68.7l-64.5 64.5m60.3-68.7l-64.5 64.5m60.3-68.6L310 503.9"/></g><g class="F B C"><g transform="matrix(.7071 -.7071 .7071 .7071 98.5881 201.866)"><circle stroke-width=".5" cx="293" cy="-18.1" r="141"/><circle stroke-width=".656" cx="293" cy="-18.1" r="133.9"/><circle cx="293" cy="-18.1" r="126.8" class="L"/><circle stroke-width=".969" cx="293" cy="-18.1" r="119.7"/><circle stroke-width="1.125" cx="293" cy="-18.1" r="112.6"/><circle stroke-width="1.281" cx="293" cy="-18.1" r="105.5"/><circle stroke-width="1.438" cx="293" cy="-18.1" r="98.3"/><circle stroke-width="1.594" cx="293" cy="-18.1" r="91.2"/><circle stroke-width="1.75" cx="293" cy="-18.1" r="84.1"/><circle stroke-width="1.906" cx="293" cy="-18.1" r="77"/><circle stroke-width="2.063" cx="293" cy="-18.1" r="69.9"/></g><circle transform="matrix(.1905 -.9817 .9817 .1905 254.9059 272.9733)" stroke-width="2.219" cx="293" cy="-18.1" r="62.8"/><circle transform="matrix(.1619 -.9868 .9868 .1619 263.3669 273.9551)" stroke-width="2.375" cx="293" cy="-18.1" r="55.7"/><circle transform="matrix(.137 -.9906 .9906 .137 270.724 274.6075)" stroke-width="2.531" cx="293" cy="-18.1" r="48.6"/><circle transform="matrix(.1153 -.9933 .9933 .1153 277.1452 275.0247)" stroke-width="2.688" cx="293" cy="-18.1" r="41.5"/><circle transform="matrix(.096195 -.9954 .9954 .096195 282.7752 275.2745)" stroke-width="2.844" cx="293" cy="-18.1" r="34.4"/><circle transform="matrix(.079353 -.9968 .9968 .079353 287.7362 275.4049)" cx="293" cy="-18.1" r="27.3" class="H"/></g><g class="F B C"><g transform="matrix(.7071 -.7071 .7071 .7071 -35.3684 387.1258)"><circle stroke-width=".5" cx="449.6" cy="236.3" r="92.2"/><circle stroke-width=".727" cx="449.6" cy="236.3" r="85.7"/><circle stroke-width=".955" cx="449.6" cy="236.3" r="79.2"/><circle stroke-width="1.182" cx="449.6" cy="236.3" r="72.7"/><circle stroke-width="1.409" cx="449.6" cy="236.3" r="66.2"/></g><circle transform="matrix(.9787 -.2053 .2053 .9787 -38.9256 97.337)" stroke-width="1.636" cx="449.6" cy="236.3" r="59.7"/><circle transform="matrix(.9825 -.1861 .1861 .9825 -36.1104 87.7931)" stroke-width="1.864" cx="449.6" cy="236.3" r="53.2"/><circle transform="matrix(.9866 -.1629 .1629 .9866 -32.4854 76.4136)" stroke-width="2.091" cx="449.6" cy="236.3" r="46.7"/><circle transform="matrix(.9909 -.1346 .1346 .9909 -27.7167 62.6908)" stroke-width="2.318" cx="449.6" cy="236.3" r="40.2"/><circle transform="matrix(.995 -.099609 .099609 .995 -21.2972 45.961)" stroke-width="2.546" cx="449.6" cy="236.3" r="33.7"/><circle transform="matrix(.9985 -.055647 .055647 .9985 -12.4503 25.3861)" stroke-width="2.773" cx="449.6" cy="236.3" r="27.2"/><circle cx="449.6" cy="236.3" r="20.7" class="H"/></g><g opacity=".9" class="B C G I"><circle transform="matrix(.7071 -.7071 .7071 .7071 -85.3348 184.839)" stroke-dasharray="0,4.3446" cx="180.5" cy="195.4" r="80.9" class="L"/><circle transform="matrix(.7071 -.7071 .7071 .7071 -85.3348 184.8391)" stroke-width=".949" stroke-dasharray="0,4.2076" cx="180.5" cy="195.4" r="75"/><g transform="matrix(.7071 -.7071 .7071 .7071 -85.3348 184.839)"><circle stroke-width="1.086" stroke-dasharray="0,4.0961" cx="180.5" cy="195.4" r="69.1"/><circle stroke-width="1.223" stroke-dasharray="0,4.0107" cx="180.5" cy="195.4" r="63.2"/></g><circle transform="matrix(.7071 -.7071 .7071 .7071 -85.3348 184.8391)" stroke-width="1.359" stroke-dasharray="0,3.8705" cx="180.5" cy="195.4" r="57.3"/><circle transform="matrix(.7071 -.7071 .7071 .7071 -85.3348 184.839)" stroke-width="1.496" stroke-dasharray="0,3.7545" cx="180.5" cy="195.4" r="51.4"/><circle transform="matrix(.7071 -.7071 .7071 .7071 -85.3348 184.8391)" stroke-width="1.632" stroke-dasharray="0,3.6645" cx="180.5" cy="195.4" r="45.5"/><circle transform="matrix(.1602 -.9871 .9871 .1602 -41.3565 342.2466)" stroke-width="1.769" stroke-dasharray="0,3.554" cx="180.5" cy="195.4" r="39.6"/><circle transform="matrix(.9951 -.098538 .098538 .9951 -18.3788 18.7325)" stroke-width="1.905" stroke-dasharray="0,3.4149" cx="180.5" cy="195.4" r="33.7"/><circle transform="matrix(.1602 -.9871 .9871 .1602 -41.3565 342.2466)" stroke-width="2.042" stroke-dasharray="0,3.2956" cx="180.5" cy="195.4" r="27.8"/><circle stroke-width="2.179" stroke-dasharray="0,3.2003" cx="180.5" cy="195.4" r="21.9"/><circle transform="matrix(.1602 -.9871 .9871 .1602 -41.3566 342.2466)" stroke-width="2.315" stroke-dasharray="0,3.0472" cx="180.5" cy="195.4" r="16"/></g><g class="B C F G I"><circle stroke-width="1.053" stroke-dasharray="0,5.6068" cx="750" cy="1.3" r="149.9"/><circle stroke-width="1.146" stroke-dasharray="0,5.5242" cx="750" cy="1.3" r="144.2"/><circle stroke-width="1.239" stroke-dasharray="0,5.4716" cx="750" cy="1.3" r="138.5"/><circle stroke-width="1.331" stroke-dasharray="0,5.3807" cx="750" cy="1.3" r="132.7"/><circle stroke-width="1.424" stroke-dasharray="0,5.3202" cx="750" cy="1.3" r="127"/><circle stroke-width="1.517" stroke-dasharray="0,5.2196" cx="750" cy="1.3" r="121.3"/><circle stroke-width="1.609" stroke-dasharray="0,5.1495" cx="750" cy="1.3" r="115.6"/><circle stroke-width="1.702" stroke-dasharray="0,5.0742" cx="750" cy="1.3" r="109.8"/><circle stroke-width="1.795" stroke-dasharray="0,4.9933" cx="750" cy="1.3" r="104.1"/><circle stroke-width="1.888" stroke-dasharray="0,4.9059" cx="750" cy="1.3" r="98.4"/><circle stroke-width="1.98" stroke-dasharray="0,4.8513" cx="750" cy="1.3" r="92.7"/><circle stroke-width="2.073" stroke-dasharray="0,4.7494" cx="750" cy="1.3" r="86.9"/><circle transform="matrix(.04274 -.9991 .9991 .04274 716.6672 750.5393)" stroke-width="2.166" stroke-dasharray="0,4.6808" cx="750" cy="1.3" r="81.2"/><circle stroke-width="2.258" stroke-dasharray="0,4.6041" cx="750" cy="1.3" r="75.5"/><circle stroke-width="2.351" stroke-dasharray="0,4.518" cx="750" cy="1.3" r="69.7"/><circle stroke-width="2.444" stroke-dasharray="0,4.469" cx="750" cy="1.3" r="64"/><circle stroke-width="2.536" stroke-dasharray="0,4.3595" cx="750" cy="1.3" r="58.3"/><circle stroke-width="2.629" stroke-dasharray="0,4.2885" cx="750" cy="1.3" r="52.6"/><circle stroke-width="2.722" stroke-dasharray="0,4.2035" cx="750" cy="1.3" r="46.8"/><circle stroke-width="2.815" stroke-dasharray="0,4.1657" cx="750" cy="1.3" r="41.1"/><circle stroke-width="2.907" stroke-dasharray="0,4.042" cx="750" cy="1.3" r="35.4"/><circle transform="matrix(.2321 -.9727 .9727 .2321 574.6436 730.4924)" stroke-dasharray="0,3.9647" cx="750" cy="1.3" r="29.7" class="H"/></g><g opacity=".77"><defs><circle id="J" opacity=".77" cx="320.3" cy="315.2" r="32.2"/></defs><clipPath id="K"><use xlink:href="#J"/></clipPath><g clip-path="url(#K)" class="B C E J"><path d="M273.8 245.5L134.3 385m147.5-139.5L142.3 385m147.5-139.5L150.3 385m147.6-139.5L158.4 385m147.5-139.5L166.4 385m147.5-139.5L174.4 385m147.5-139.5L182.4 385m147.5-139.5L190.4 385m147.5-139.5L198.4 385M346 245.5L206.5 385M354 245.5L214.5 385M362 245.5L222.5 385M370 245.5L230.5 385M378 245.5L238.5 385M386 245.5L246.5 385m147.6-139.5L254.6 385m147.5-139.5L262.6 385m147.5-139.5L270.6 385m147.5-139.5L278.6 385m147.5-139.5L286.6 385m147.6-139.5L294.7 385m147.5-139.5L302.7 385m147.5-139.5L310.7 385m147.5-139.5L318.7 385m147.5-139.5L326.7 385m147.5-139.5L334.7 385m147.6-139.5L342.8 385m147.5-139.5L350.8 385m147.5-139.5L358.8 385m147.5-139.5L366.8 385"/></g></g><g class="F"><defs><circle id="L" cx="675.5" cy="510" r="103" class="F"/></defs><clipPath id="M"><use xlink:href="#L"/></clipPath><g clip-path="url(#M)" class="B C E J"><path d="M658.7 343l-331 331.1m339-331.1L335.6 674.1m339-331.1L343.5 674.1m339-331.1L351.4 674.1m339-331.1l-331 331.1m339-331.1L367.3 674.1m339-331.1L375.2 674.1m339-331.1L383.1 674.1m339-331.1l-331 331.1m339-331.1L399 674.1M738 343L406.9 674.1m339-331.1L414.8 674.1m339-331.1l-331 331.1m339-331.1L430.7 674.1m339-331.1L438.6 674.1m339-331.1L446.5 674.1m339-331.1l-331 331.1M793.4 343l-331 331.1m339-331.1L470.3 674.1m339-331.1L478.2 674.1m339-331.1L486.1 674.1m339-331.1l-331 331.1m339-331.1L502 674.1M841 343L509.9 674.1m339-331.1L517.8 674.1m339-331.1l-331 331.1m339-331.1L533.7 674.1m339-331.1L541.6 674.1m339-331.1L549.5 674.1m339-331.1l-331 331.1m339-331.1L565.4 674.1m339-331.1L573.3 674.1m339-331.1L581.2 674.1m339-331.1l-331 331.1M928.1 343l-331 331.1m339-331.1L605 674.1M944 343L612.9 674.1m339-331.1L620.8 674.1m339-331.1l-331 331.1m339-331.1L636.7 674.1m339-331.1L644.6 674.1m339-331.1L652.5 674.1m339-331.1l-331 331.1m339-331.1L668.4 674.1m339-331.1L676.3 674.1"/></g></g><g opacity=".72" class="B C E"><g stroke-width="50"><path d="M-172.97 328.494l156.976-156.976 156.976 156.976L-15.994 485.47zM593 171.507L749.986 14.53l156.976 156.976-156.976 156.976z" class="D"/></g><path stroke-width="30" d="M218 544.302l156.976-156.976 156.976 156.976-156.976 156.976z" class="D"/></g><linearGradient id="N" gradientUnits="userSpaceOnUse" x1="79.702" y1="342.833" x2="-140.467" y2="563.003"><stop offset="0" stop-color="#fff"/><stop offset="1" stop-opacity="0"/></linearGradient><path fill="url(#N)" d="M79.7 342.8h0c14.9 14.9 14.9 39.1 0 54L-86.5 563c-14.9 14.9-39.1 14.9-54 0h0c-14.9-14.9-14.9-39.1 0-54L25.7 342.8c14.9-14.9 39.1-14.9 54 0z" class="D"/><linearGradient id="O" gradientUnits="userSpaceOnUse" x1="253.912" y1="327.628" x2="23.941" y2="557.6"><stop offset="0" stop-color="#fff"/><stop offset="1" stop-opacity="0"/></linearGradient><path fill="url(#O)" d="M253.9 327.6h0c16.2 16.2 16.2 42.5 0 58.7L82.6 557.6c-16.2 16.2-42.5 16.2-58.7 0h0c-16.2-16.2-16.2-42.5 0-58.7l171.3-171.3c16.2-16.2 42.5-16.2 58.7 0z" class="D"/><linearGradient id="P" gradientUnits="userSpaceOnUse" x1="247.69" y1="440.393" x2="142.104" y2="545.979"><stop offset="0" stop-color="#fff"/><stop offset="1" stop-opacity="0"/></linearGradient><path fill="url(#P)" d="M247.7 440.4h0a19.74 19.74 0 0 1 0 27.9L170 546a19.74 19.74 0 0 1-27.9 0h0a19.74 19.74 0 0 1 0-27.9l77.6-77.6c7.8-7.8 20.3-7.8 28-.1z" class="D"/><linearGradient id="Q" gradientUnits="userSpaceOnUse" x1="196.759" y1="386.118" x2="110.538" y2="472.339"><stop offset="0" stop-color="#fff"/><stop offset="1" stop-opacity="0"/></linearGradient><path fill="url(#Q)" d="M184 398.8h0c10.3 10.3 10.3 27.1 0 37.4L29.8 590.5c-10.3 10.3-27.1 10.3-37.4 0h0c-10.3-10.3-10.3-27.1 0-37.4l154.3-154.3a26.38 26.38 0 0 1 37.3 0z" class="D"/><linearGradient id="R" gradientUnits="userSpaceOnUse" x1="584.006" y1="233.486" x2="813.978" y2="3.514"><stop offset="0" stop-color="#fff"/><stop offset="1" stop-opacity="0"/></linearGradient><path fill="url(#R)" d="M584 233.5h0c-16.2-16.2-16.2-42.5 0-58.7L755.3 3.5c16.2-16.2 42.5-16.2 58.7 0h0c16.2 16.2 16.2 42.5 0 58.7L642.7 233.5c-16.2 16.2-42.5 16.2-58.7 0z" class="D"/><linearGradient id="S" gradientUnits="userSpaceOnUse" x1="580.837" y1="91.036" x2="686.423" y2="-14.55"><stop offset="0" stop-color="#fff"/><stop offset="1" stop-opacity="0"/></linearGradient><path fill="url(#S)" d="M580.8 91h0a19.74 19.74 0 0 1 0-27.9l77.6-77.6a19.74 19.74 0 0 1 27.9 0h0a19.74 19.74 0 0 1 0 27.9L608.8 91c-7.7 7.8-20.2 7.8-28 0z" class="D"/><linearGradient id="T" gradientUnits="userSpaceOnUse" x1="707.242" y1="234.339" x2="812.828" y2="128.753"><stop offset="0" stop-color="#fff"/><stop offset="1" stop-opacity="0"/></linearGradient><path fill="url(#T)" d="M707.2 234.3h0a19.74 19.74 0 0 1 0-27.9l77.6-77.6a19.74 19.74 0 0 1 27.9 0h0a19.74 19.74 0 0 1 0 27.9l-77.6 77.6c-7.6 7.8-20.1 7.8-27.9 0z" class="D"/><g class="B C D I J"><circle cx="164.8" cy="86.6" r="4.1"/><g class="E"><use xlink:href="#G"/><path d="M316.4 162.1c0 2.3-1.8 4.1-4.1 4.1s-4.1-1.8-4.1-4.1 1.8-4.1 4.1-4.1c2.2 0 4.1 1.8 4.1 4.1zM29.6 295c0 2.3-1.8 4.1-4.1 4.1s-4.1-1.8-4.1-4.1 1.8-4.1 4.1-4.1 4.1 1.8 4.1 4.1zm41.3-119.6c0 2.3-1.8 4.1-4.1 4.1s-4.1-1.8-4.1-4.1 1.8-4.1 4.1-4.1c2.3.1 4.1 1.9 4.1 4.1z"/><g class="G"><path d="M392.5 121.6v7.1"/><path d="M396.1 125.1H389m303.6 235v7.1"/><path d="M696.1 363.6H689m-499.7-68.1v7.1"/><path d="M192.8 299h-7.1m368.2 146.4v7.1"/><path d="M557.5 448.9h-7.2m-17.9-3.5v7.1"/><path d="M535.9 448.9h-7.1m-18-3.5v7.1"/><path d="M514.4 448.9h-7.2M70.9 126.4v7.1"/><path d="M74.5 129.9h-7.2m-18-3.5v7.1"/><path d="M52.9 129.9h-7.1m-18-3.5v7.1"/><path d="M31.4 129.9h-7.2"/></g><path d="M274.1 274.9l5.5-9.7h-11.1zm265.4-146.2l-5.6 9.6H545z"/><g class="G"><use xlink:href="#H"/><path d="M476.2 400.7c2.4-2.4 6.7 1.8 9.1-.6s-1.8-6.7.6-9.1 6.7 1.8 9.1-.6-1.8-6.7.6-9.1 6.7 1.8 9.1-.6-1.8-6.7.6-9.1 6.7 1.8 9.1-.6m-26.2-244.8c2.4-2.4 6.7 1.8 9.1-.6s-1.8-6.7.6-9.1 6.7 1.8 9.1-.6-1.8-6.7.6-9.1 6.7 1.8 9.1-.6-1.8-6.7.6-9.1 6.7 1.8 9.1-.6"/></g></g></g></g></svg>