<?xml version="1.0" encoding="utf-8"?>
<!-- Generator: Adobe Illustrator 21.1.0, SVG Export Plug-In . SVG Version: 6.00 Build 0)  -->
<svg version="1.1" id="Vrstva_1" xmlns="http://www.w3.org/2000/svg" xmlns:xlink="http://www.w3.org/1999/xlink" x="0px" y="0px"
	 viewBox="0 0 1006.5 300" style="enable-background:new 0 0 1006.5 300;" xml:space="preserve">
<style type="text/css">
	.st0{fill:#000;}
</style>
<g>
	<path class="st0" d="M304.9,246.4c-39.9,0-68-13.1-77.2-36.3c-8.1-20.8,0-46.5,23.2-72.5c22.1-25,55.7-47.5,94.4-63.4
		c33.8-14,69.1-21.7,99.1-21.7c40.1,0,68.2,13.1,77.2,36.3c8.1,20.8,0,46.5-23.2,72.5c-22.1,25-55.7,47.5-94.4,63.4
		C370.3,238.7,335,246.4,304.9,246.4L304.9,246.4z M444.5,62.9c-29,0-62.8,7.3-95.4,21c-37.3,15.4-69.4,37-90.7,60.8
		c-20.2,22.9-27.8,44.6-21.3,61.6c7.4,18.9,32.2,29.7,67.7,29.7c29,0,62.8-7.3,95.4-21c37.3-15.4,69.4-37,90.7-60.8
		c20.2-22.9,27.8-44.7,21.3-61.7C504.8,73.7,480,62.9,444.5,62.9L444.5,62.9z M311.3,245.7c-38.7,0-65.9-12.9-74.5-35.3
		c-7.9-20.3,0-45.4,22.7-70.6c21.4-24,53.8-45.8,91.1-61c32.7-13.5,66.8-21,96.2-21c38.7,0,65.9,12.9,74.5,35.3
		c16,40.9-33.9,98.7-113.7,131.5C374.5,238.1,340.4,245.7,311.3,245.7L311.3,245.7z M446.4,70.4c-27.8,0-60.1,7.1-91.6,20.1
		c-35.7,14.6-66.3,35.3-86.5,57.8c-18.8,21.1-26.2,41.9-20.2,57.3c6.7,17.3,29.7,27.2,63.1,27.2c27.8,0,60.1-7.1,91.6-20.1
		c70.8-29.4,119.7-82,106.9-115.1C502.9,80.4,479.8,70.4,446.4,70.4z M458.4,285.5c-37.6,0-90.2-29.7-133.8-76
		c-29.7-31.3-52.2-66.4-63.1-98.7c-11.8-33.7-9.7-60.6,5.8-76.2c8.4-8.4,20-12.8,34.6-12.8c37.6,0,90.2,29.7,133.9,75.8
		c29.7,31.3,52.2,66.4,63.1,98.7c11.6,33.8,9.3,60.6-6,76C484.6,281.1,472.8,285.5,458.4,285.5L458.4,285.5z M301.9,32.3
		c-11.8,0-21.1,3.3-27.6,9.8c-12.5,12.4-13.7,35.6-3.5,65.3c10.5,30.9,32.2,64.6,61,94.9c42,44.2,91.6,72.8,126.7,72.8
		c11.8,0,21.1-3.3,27.6-9.8c12.5-12.4,13.7-35.6,3.5-65.2c-10.5-30.9-32.2-64.6-61-94.9C386.7,61,336.9,32.3,301.9,32.3L301.9,32.3z
		 M451.3,286.2c-36.2,0-87-28.8-129.2-73.5c-28.7-30.1-50.3-63.9-61-94.9c-11.4-32.7-9.3-58.9,5.4-73.9c8.3-8.2,19.5-12.4,33.6-12.4
		c36.2,0,87,28.8,129.2,73.5c61.2,64.5,85.4,138.8,55.4,169C476.5,282,465.2,286.2,451.3,286.2z M300.2,44.2c-10.7,0-19.2,3-25,8.7
		c-11.3,11.2-12.1,33.4-2.6,60.6c10.2,29.4,30.9,61.5,58.2,90.4c40.1,42.3,87.5,69.7,120.6,69.7c10.7,0,19.2-3,25-8.7
		c24.4-24.4-1.1-93.5-55.5-150.9C380.5,71.5,333.2,44,300.2,44.2L300.2,44.2z M393,151.3c0,10-7.9,18-17.6,18s-17.6-8.2-17.6-18
		c0-10,7.9-18,17.6-18S393,141.3,393,151.3z M335,300c-7,0-13.7-1.4-19.9-4.4c-20.7-9.6-33.2-34-35.2-69
		c-1.8-33.8,6.5-73.4,23.2-111.6C332.9,47.3,381.9,0,422.7,0c7,0,13.7,1.4,19.9,4.4c20.7,9.6,33.2,34,35.2,69
		c1.8,33.6-6.5,73.4-23.2,111.6C425,252.8,375.8,300,335,300L335,300z M422.7,10.5c-36.4,0-82.8,45.8-110.4,108.7
		C296.1,156.1,288.2,194,290,226c1.6,30.8,12,52.3,29.2,60.1c4.9,2.3,10,3.3,15.8,3.3c36.4,0,82.8-45.8,110.4-108.7
		c16.2-36.9,24.1-74.8,22.3-106.8c-1.6-30.8-12-52.3-29.2-60.1C433.6,11.7,428.3,10.5,422.7,10.5L422.7,10.5z M329.2,295.6
		c-6.5,0-12.7-1.4-18.3-4c-19.9-9.3-31.5-33.2-32.7-67.6c-1.1-32.9,7.4-71.7,23.9-109.4C331.6,47.2,379.5,0.2,418.5,0.2
		c6.5,0,12.7,1.4,18.3,4c19.9,9.3,31.5,33.2,32.7,67.6c1.1,32.9-7.4,71.7-23.9,109.4C416,248.4,368,295.6,329.2,295.6z M418.5,12.9
		c-33.7,0-77.9,45.1-105.1,106.9c-15.8,36-23.9,72.8-22.9,103.6c1.1,29.4,10,49.3,25.5,56.4c4,1.9,8.4,2.8,13.2,2.8
		c33.7,0,77.9-45.1,105.1-106.9c15.8-36,23.9-72.8,22.9-103.6c-1.1-29.4-10-49.3-25.5-56.4C427.6,13.8,423.2,12.9,418.5,12.9
		L418.5,12.9z"/>
	<g>
		<path class="st0" d="M28.7,97.5c13.2,0,23.6,2.8,30.8,8.1c7.3,5.4,11,14.4,11,26.7c0,12.5-3.7,21.5-11,27.1
			c-7.4,5.5-17.8,8.3-31.3,8.3h-7.4V203H0V100c2.1-0.5,4.3-0.8,6.8-1.2c2.5-0.4,5.1-0.6,7.7-0.8c2.6-0.2,5.1-0.3,7.6-0.4
			C24.6,97.6,26.7,97.5,28.7,97.5z M31,115.5c-1.2,0-2.9,0-5.2,0.1c-2.2,0.1-3.9,0.2-5.2,0.4v33.7H29c6.6,0,11.6-1.3,15-4
			c3.4-2.6,5-7.1,5-13.5c0-6.1-1.6-10.4-5-12.9C40.9,116.8,36.5,115.5,31,115.5z"/>
		<path class="st0" d="M151.8,98.7V203h-20.7v-46h-27.7v46H82.7V98.7h20.7v41.1h27.7V98.7H151.8z"/>
		<path class="st0" d="M197.1,97.5c13.2,0,23.6,2.8,30.8,8.1c7.3,5.4,11,14.4,11,26.7c0,12.5-3.7,21.5-11,27.1
			c-7.4,5.6-17.8,8.3-31.2,8.3h-7.4V203h-20.7V100c2.1-0.5,4.3-0.8,6.8-1.2c2.5-0.4,5.1-0.6,7.7-0.8c2.6-0.2,5.1-0.3,7.6-0.4
			C193,97.6,195.2,97.5,197.1,97.5z M199.5,115.5c-1.2,0-2.9,0-5.2,0.1c-2.2,0.1-3.9,0.2-5.2,0.4v33.7h8.4c6.6,0,11.6-1.3,15-4
			c3.4-2.6,5-7.1,5-13.5c0-6.1-1.6-10.4-5-12.9C209.4,116.8,205,115.5,199.5,115.5z"/>
	</g>
	<g>
		<path class="st0" d="M534.6,200.1v-101h61.9v16.6h-41.8v24.5h36.6v16.6h-36.6V200L534.6,200.1L534.6,200.1z"/>
		<path class="st0" d="M646.3,202.3c-6.5,0-12-0.9-16.4-2.7s-7.9-4.4-10.5-7.7c-2.6-3.4-4.5-7.4-5.6-12.2s-1.6-10.1-1.6-16V99.1
			h20.3v63.2c0,4.2,0.2,7.8,0.6,10.7c0.4,2.9,1.2,5.2,2.2,6.9c1.1,1.8,2.5,3,4.3,3.8c1.9,0.8,4.2,1.2,7,1.2s5.2-0.4,7-1.2
			c1.9-0.8,3.3-2.1,4.4-3.8c1.1-1.8,1.9-4.2,2.3-7c0.4-2.9,0.6-6.4,0.6-10.7v-63H681v64.5c0,5.9-0.5,11.2-1.6,16s-3,8.8-5.7,12.2
			s-6.3,6-10.8,7.7C658.5,201.3,653,202.3,646.3,202.3z"/>
		<path class="st0" d="M725.4,185.4c3.4,0,6.2-0.4,8.4-1.1c2.2-0.7,4-1.7,5.3-2.9s2.2-2.6,2.7-4.2c0.5-1.6,0.8-3.2,0.8-4.8
			c0-2.1-0.6-3.9-1.8-5.6c-1.2-1.6-2.7-3-4.6-4.3c-1.9-1.2-3.9-2.4-6.2-3.5s-4.6-2-6.9-2.9c-3-1.1-6.2-2.3-9.5-3.8
			c-3.3-1.4-6.2-3.2-8.9-5.4s-4.9-4.9-6.6-8.1s-2.6-7.2-2.6-12c0-9.5,3-16.9,9.2-22.2s14.6-8,25.4-8c6.2,0,11.6,0.7,16.2,2.1
			c4.6,1.4,8.5,3,11.7,4.7l-5.9,15.5c-2.7-1.5-5.7-2.8-9.1-3.9c-3.3-1.1-7.1-1.6-11.5-1.6c-10.7,0-16,3.9-16,11.6
			c0,1.9,0.5,3.7,1.6,5.2s2.5,2.8,4.2,3.9s3.6,2.2,5.7,3c2.1,0.9,4.2,1.7,6.3,2.5c3.2,1.2,6.4,2.5,9.9,4s6.6,3.5,9.5,5.9
			c2.9,2.5,5.3,5.5,7.1,9.1c1.9,3.6,2.8,8.3,2.8,13.8c0,9.5-3.1,16.8-9.2,22c-6.2,5.2-15.5,7.7-28,7.7c-8.4,0-15.1-0.9-20.1-2.7
			s-8.8-3.5-11.3-5l5.9-16.3c2.9,1.8,6.4,3.4,10.5,4.9C714.6,184.7,719.5,185.4,725.4,185.4z"/>
		<path class="st0" d="M777.9,200.1v-16.6h22v-67.7h-22V99.1h64.2v16.6h-21.9v67.7h21.9V200h-64.2V200.1z"/>
		<path class="st0" d="M855.2,149.5c0-17.4,3.2-30.5,9.6-39.4c6.4-8.8,15.4-13.3,26.8-13.3c11.8,0,20.9,4.5,27.1,13.3
			c6.2,8.8,9.3,22,9.3,39.4s-3.2,30.6-9.5,39.4c-6.3,8.8-15.2,13.3-26.8,13.3c-11.8,0-20.9-4.5-27.2-13.3
			C858.3,180.1,855.2,166.9,855.2,149.5z M875.6,149.5c0,4.9,0.2,9.5,0.6,13.8c0.4,4.3,1.2,8,2.3,11.2c1.2,3.2,2.8,5.7,4.8,7.5
			c2.1,1.9,4.9,2.8,8.3,2.8c3.4,0,6.1-0.9,8.3-2.8c2.1-1.9,3.8-4.4,4.9-7.6s1.9-6.9,2.3-11.2c0.4-4.2,0.6-8.8,0.6-13.7
			s-0.2-9.5-0.6-13.8s-1.2-8-2.3-11.2c-1.2-3.2-2.8-5.7-4.8-7.5c-2.1-1.9-4.9-2.8-8.3-2.8c-3.5,0-6.3,0.9-8.3,2.8
			c-2.1,1.9-3.7,4.4-4.8,7.6c-1.2,3.2-1.9,6.9-2.3,11.2C875.8,140,875.6,144.6,875.6,149.5z"/>
		<path class="st0" d="M990.4,200.1c-4.6-11.2-9.6-22.4-14.9-33.6c-5.4-11.1-11.2-22.3-17.4-33.6V200H940V99h16.2
			c3,4.8,6.1,10,9.1,15.6s6,11.2,8.9,16.8c2.9,5.6,5.6,11,8,16.2c2.5,5.2,4.6,9.8,6.3,13.7V99.1h18.1v101.1L990.4,200.1L990.4,200.1
			z"/>
	</g>
</g>
</svg>
