<?xml version="1.0" encoding="utf-8"?>
<!-- Generator: Adobe Illustrator 23.0.0, SVG Export Plug-In . SVG Version: 6.00 Build 0)  -->
<svg version="1.1" id="icon" xmlns="http://www.w3.org/2000/svg" xmlns:xlink="http://www.w3.org/1999/xlink" x="0px" y="0px"
	 viewBox="0 0 256 256" style="enable-background:new 0 0 256 256;" xml:space="preserve">
<style type="text/css">
	.st0{fill:url(#SVGID_1_);}
	.st1{fill:url(#SVGID_2_);}
	.st2{fill:url(#SVGID_3_);}
	.st3{fill:url(#SVGID_4_);}
	.st4{fill:url(#SVGID_5_);}
	.st5{fill:#FFFFFF;}
	.st6{fill:url(#SVGID_6_);}
	.st7{fill:url(#SVGID_7_);}
	.st8{fill:#FAA629;}
	.st9{fill:url(#SVGID_8_);}
	.st10{fill:#033950;}
	.st11{fill:url(#SVGID_9_);}
	.st12{fill:#00688C;}
</style>
<g>
	
		<linearGradient id="SVGID_1_" gradientUnits="userSpaceOnUse" x1="26.6767" y1="636.8146" x2="228.7643" y2="636.8146" gradientTransform="matrix(1 0 0 1 0 -510)">
		<stop  offset="0.202" style="stop-color:#003C55"/>
		<stop  offset="0.3153" style="stop-color:#00597F"/>
		<stop  offset="0.867" style="stop-color:#0078AF"/>
		<stop  offset="0.9852" style="stop-color:#004C6C"/>
	</linearGradient>
	<path class="st0" d="M164,87C111.9,41.3,53.5,22,33.4,43.9c-20,22,5.9,76.9,58,122.7S202,231.7,222,209.7
		C242.1,187.8,216.1,132.8,164,87z M206.3,198.9c-16.8,18.8-67.5,2.2-113.3-37.2S23.7,75.1,40.5,56.3s67.5-2.2,113.3,37.2
		S223.1,180.1,206.3,198.9z"/>
	
		<linearGradient id="SVGID_2_" gradientUnits="userSpaceOnUse" x1="15.4896" y1="567.656" x2="240.5179" y2="697.576" gradientTransform="matrix(1 0 0 1 0 -510)">
		<stop  offset="0" style="stop-color:#00B5D7"/>
		<stop  offset="8.866990e-02" style="stop-color:#0092C0"/>
		<stop  offset="0.4729" style="stop-color:#005C8F"/>
		<stop  offset="0.7438" style="stop-color:#006E92"/>
		<stop  offset="1" style="stop-color:#16406E"/>
	</linearGradient>
	<path class="st1" d="M165.9,80.3C111.5,31.5,50.4,11,29.5,34.4c-21,23.4,6.2,81.8,60.6,130.6c54.4,48.7,115.5,69.3,136.4,45.9
		S220.3,129,165.9,80.3z M210.1,199.3c-17.6,20-70.6,2.3-118.4-39.6C43.8,117.8,19.3,67.6,36.8,47.5c17.6-20,70.6-2.3,118.4,39.6
		C203.1,129.1,227.6,179.3,210.1,199.3z"/>
	
		<linearGradient id="SVGID_3_" gradientUnits="userSpaceOnUse" x1="48.9237" y1="593.6207" x2="200.1785" y2="680.9478" gradientTransform="matrix(1 0 0 1 0 -510)">
		<stop  offset="0.3202" style="stop-color:#BF6E29"/>
		<stop  offset="0.5271" style="stop-color:#FBAE32"/>
		<stop  offset="1" style="stop-color:#955D25"/>
	</linearGradient>
	<path class="st2" d="M243,71.1c-13.2-27.5-77-24.6-142.4,6.4S-7.1,156,6.1,183.5s77,24.6,142.4-6.4S256.2,98.6,243,71.1z
		 M146.4,172.5c-55.6,26.4-109.8,28.9-121,5.6s24.8-63.6,80.4-90s109.8-28.9,121-5.6C238,105.8,202,146.1,146.4,172.5z"/>
	
		<linearGradient id="SVGID_4_" gradientUnits="userSpaceOnUse" x1="3.4472" y1="632.5858" x2="252.5528" y2="632.5858" gradientTransform="matrix(1 0 0 1 0 -510)">
		<stop  offset="0" style="stop-color:#FAA631"/>
		<stop  offset="0.33" style="stop-color:#FEC034"/>
		<stop  offset="0.6305" style="stop-color:#FEC034"/>
		<stop  offset="0.8325" style="stop-color:#FFD234"/>
	</linearGradient>
	<path class="st3" d="M250.5,69.3c-12.5-28.6-77.4-28-145.1,1.4C37.8,100.2-7,147.3,5.5,175.9s77.4,28,145.1-1.4
		C218.2,145,263,97.9,250.5,69.3z M148.6,169.7c-57.5,25.1-112.8,25.7-123.3,1.4c-10.6-24.3,27.5-64.3,85-89.4
		c57.5-25,112.7-25.7,123.3-1.4C244.2,104.6,206.1,144.7,148.6,169.7z"/>
	
		<radialGradient id="SVGID_5_" cx="118.503" cy="639.4835" r="13.7315" gradientTransform="matrix(1 0 0 1 0 -510)" gradientUnits="userSpaceOnUse">
		<stop  offset="0.3153" style="stop-color:#4C4C4C"/>
		<stop  offset="0.8916" style="stop-color:#191918"/>
	</radialGradient>
	<path class="st4" d="M132.8,129.5c0,7.3-6.4,13.2-14.3,13.2s-14.3-5.9-14.3-13.2c0-7.3,6.4-13.2,14.3-13.2S132.8,122.2,132.8,129.5
		z"/>
	<path class="st5" d="M123.5,121.6c1.5,1.8,1.9,4,0.8,4.9s-3.2,0.2-4.7-1.6c-1.5-1.8-1.9-4-0.8-4.9C119.8,119,122,119.7,123.5,121.6
		z"/>
	
		<linearGradient id="SVGID_6_" gradientUnits="userSpaceOnUse" x1="67.0192" y1="603.7723" x2="188.9843" y2="674.189" gradientTransform="matrix(1 0 0 1 0 -510)">
		<stop  offset="0.7044" style="stop-color:#191918"/>
		<stop  offset="1" style="stop-color:#5B5B5B"/>
	</linearGradient>
	<path class="st6" d="M177.6,153.9c-30,58.6-78.7,94.1-108.8,79.3c-30-14.8-30-74.4,0-133s78.7-94.1,108.8-79.3
		C207.6,35.8,207.6,95.3,177.6,153.9z M187.1,5.4C152-10.8,97.2,31.5,64.5,99.7C31.9,168,33.9,236.3,68.9,252.5
		c35.1,16.2,89.9-26.1,122.6-94.3C224.1,90,222.1,21.5,187.1,5.4z"/>
	
		<linearGradient id="SVGID_7_" gradientUnits="userSpaceOnUse" x1="20.8829" y1="696.3714" x2="226.5271" y2="577.6426" gradientTransform="matrix(1 0 0 1 0 -510)">
		<stop  offset="0" style="stop-color:#454645"/>
		<stop  offset="0.2906" style="stop-color:#5B5B5B"/>
		<stop  offset="0.6847" style="stop-color:#3A3B3B"/>
		<stop  offset="0.9754" style="stop-color:#717171"/>
	</linearGradient>
	<path class="st7" d="M181.7,3.4C147.3-12.7,93.4,29.5,61.4,97.8s-30.1,136.7,4.3,152.8c34.4,16.2,88.3-26.1,120.3-94.3
		C218.1,88,216.1,19.6,181.7,3.4z M172.4,152c-29.5,58.6-77.3,94.1-106.8,79.3c-29.5-14.8-29.5-74.4,0-133
		C95.1,39.6,142.9,4.2,172.4,19S201.9,93.4,172.4,152z"/>
	<g>
		<path class="st8" d="M70.8,88.5c-0.1,0-0.1,0.1-0.2,0.1c-0.2,0.1-0.4,0.2-0.6,0.4l0,0c-2.1,1.3-4.2,2.5-6.2,3.8
			c-0.8,1.6-1.6,3.3-2.4,5c-2.9,6.1-5.4,12.2-7.8,18.3c1.9-1.6,3.9-3.2,5.9-4.8c1.9-1.5,4-3,6-4.5c1-2.2,2.1-4.4,3.2-6.5
			c2.8-5.4,5.7-10.6,8.8-15.6C75.3,85.8,73,87.2,70.8,88.5L70.8,88.5z"/>
	</g>
	
		<linearGradient id="SVGID_8_" gradientUnits="userSpaceOnUse" x1="50.749" y1="618.2903" x2="73.0419" y2="618.2903" gradientTransform="matrix(1 0 0 1 0 -510)">
		<stop  offset="0.3202" style="stop-color:#BF6E29"/>
		<stop  offset="1" style="stop-color:#955D25"/>
	</linearGradient>
	<path class="st9" d="M66.5,96.5L66.5,96.5c-0.1,0.1-0.3,0.2-0.4,0.3c0,0-0.1,0-0.1,0.1l0,0c-2,1.3-4,2.6-6,4
		c-3.5,7.8-6.6,15.5-9.3,23.2c1.7-1.6,3.5-3.2,5.4-4.7l0,0c1.9-1.6,5.9-4.7,8-6.3c2-4.8,2.3-8,4.7-12.8c1.4-2.6,2.8-5.2,4.2-7.8
		C70.8,93.8,68.6,95.1,66.5,96.5z"/>
	<path class="st10" d="M125.7,185.4c-1.3-0.8-1.2-0.5-2.5-1.4c-1.4-0.9-2.9-1.8-4.3-2.7c-2.3,0.7-8.2-1.4-10.4-0.8
		c1.1,0.8,5.7,4.2,6.7,4.9l0,0c0.5,0.3,1,0.7,1.5,1c0.3,0.2,0.6,0.4,0.9,0.6l0,0c0.9,0.6,2.2,1.5,3.2,2.1
		C120.9,186.3,124,186,125.7,185.4z"/>
	<g>
		
			<linearGradient id="SVGID_9_" gradientUnits="userSpaceOnUse" x1="53.6236" y1="610.2428" x2="78.716" y2="610.2428" gradientTransform="matrix(1 0 0 1 0 -510)">
			<stop  offset="0" style="stop-color:#FCB132"/>
			<stop  offset="0.9606" style="stop-color:#FEC034"/>
		</linearGradient>
		<path class="st11" d="M70.8,88.5c-0.1,0-0.1,0.1-0.2,0.1c-0.2,0.1-0.4,0.2-0.6,0.4l0,0c-2.1,1.3-4.2,2.5-6.2,3.8
			c-1.7,1.8-3.8,4.8-4.6,6.5c-2.9,6.1-4.6,10.2-5.6,16.7c1.9-1.6,3.9-3.2,5.9-4.8c1.9-1.5,7.1-5.2,9.1-6.7c2.7-2.8,6.7-6.8,7.8-9
			c2.8-5.4,2.8-5.4,1.1-11C75.3,85.8,73,87.2,70.8,88.5L70.8,88.5z"/>
	</g>
	<path class="st12" d="M130,187.8c-1.4-0.8-4.8-2.9-6.2-3.8c-1.5-0.9-3.7-2.4-5.2-3.4c-2.4,0.7-7.6-0.8-10-0.2
		c1.1,0.8,5.8,4.3,6.9,5.1l0,0c0.5,0.4,1,0.7,1.5,1.1c0.3,0.2,0.6,0.4,0.9,0.7l0,0c1,0.7,2.1,1.5,3.1,2.1
		C124.5,188.1,128.3,188.4,130,187.8z"/>
</g>
</svg>
