<svg xmlns="http://www.w3.org/2000/svg" viewBox="0 0 48 48"><circle fill="#fff" cx="24" cy="24" r="24"/><path d="M24 4.5a19.93 19.93 0 0 0-20 20c0 8.8 5.8 16.3 13.7 19 1 .2 1.3-.4 1.3-1v-3.8c-5.6 1.3-6.8-2.3-6.8-2.3-.9-2.3-2.3-2.9-2.3-2.9-1.8-1.3.2-1.3.2-1.3 2 .2 3.1 2.1 3.1 2.1 1.7 3.1 4.7 2.2 5.8 1.7.2-1.3.7-2.2 1.3-2.7-4.4-.5-9.2-2.3-9.2-9.9 0-2.2.8-4 2.1-5.3-.3-.5-.9-2.5.2-5.3 0 0 1.7-.5 5.5 2.1 1.6-.4 3.3-.7 5-.7s3.4.3 5 .7c3.8-2.6 5.5-2.1 5.5-2.1 1.1 2.8.4 4.8.2 5.3 1.3 1.4 2.1 3.2 2.1 5.3 0 7.7-4.7 9.4-9.2 9.8.7.6 1.3 1.8 1.3 3.7v5.5c0 .5.3 1.2 1.4 1 8-2.6 13.8-10.1 13.8-18.9a19.93 19.93 0 0 0-20-20zM11.6 33.2c-.1.1-.2.2-.3.1-.2-.1-.3-.2-.2-.3s.2-.2.3-.1.2.2.2.3zm.8.9c-.1.1-.3.1-.4-.1-.2-.2-.2-.3-.1-.4s.3-.1.4.1c.2.1.2.3.1.4zm.8 1.1c-.1.1-.3 0-.4-.2s-.1-.4 0-.5c.2-.1.3 0 .4.2.1.3.1.5 0 .5zm1.1 1.2c-.1.1-.3.1-.5-.1s-.3-.4-.1-.5c.1-.1.3-.1.5.1.1.1.1.3.1.5zm1.5.6c-.1.2-.3.3-.5.2s-.3-.3-.3-.4.3-.3.5-.2.3.2.3.4zm1.6.2c0 .2-.2.3-.4.3s-.4-.1-.4-.3.2-.3.4-.3c.2-.1.4.1.4.3zm1.5-.3c0 .2-.2.3-.4.3s-.4 0-.5-.2c0-.2.2-.3.4-.4.3.1.4.1.5.3z" fill="#231e1b"/></svg>