<svg xmlns="http://www.w3.org/2000/svg" viewBox="0 0 48 48" xmlns:v="https://vecta.io/nano"><path d="M45,12l-22.9-1.9v27.7L45,36V12z" fill="#03232e"/><g fill="#07485e"><path d="M3,12v24l21,1.9V10.1L3,12z"/><path d="M48 0H24l-1.9 6 1.9 6h24V0zm0 30V18H24l-1.9 6 1.9 6h24zm0 18V36H24l-1.9 6 1.9 6h24z"/></g><path d="M0 0h24v12H0V0zm0 18h24v12H0V18zm0 18h24v12H0V36z" fill="#0b799d"/><path d="M30.6 4.6h12.9v2.8H30.6V4.6zm0 18h12.9v2.8H30.6v-2.8zm0 18h12.9v2.8H30.6v-2.8z" fill="#b4d2d7"/><path d="M4.5,4.6h3v2.8h-3V4.6z" fill="#00ff94"/><path d="M10.5,4.6h3v2.8h-3V4.6z" fill="#ffd422"/><path d="M4.5,22.6h3v2.8h-3V22.6z" fill="#00ff94"/><path d="M10.5,22.6h3v2.8h-3V22.6z" fill="#ffd422"/><path d="M4.5,40.6h3v2.8h-3V40.6z" fill="#00ff94"/><path d="M10.5,40.6h3v2.8h-3V40.6z" fill="#ffd422"/></svg>