<svg xmlns="http://www.w3.org/2000/svg" xmlns:xlink="http://www.w3.org/1999/xlink" viewBox="0 0 512 512"><style><![CDATA[.B{fill:#407bff}.C{fill:#e6e6e6}.D{fill:#263238}.E{fill:#ff8b7b}.F{fill:#fff}.G{fill:#f0f0f0}.H{fill:#f5f5f5}.I{fill:#fafafa}]]></style><path d="M190.5 325.3H104l-5.3-60.6h86.5l5.3 60.6z" class="C"/><path d="M195 325.3h-86.4l-5.3-60.6h86.5l5.2 60.6z" class="G"/><path d="M120.4,312.2l-2.9-34.6h60.4l2.9,34.6H120.4z" class="F"/><path d="M199.8 325.3H210v113h-10.2v-113z" class="C"/><g class="G"><path d="M206.1 325.3h7v113h-7v-113z"/><path d="M213.2 337.7H115v-12.5h98.2v12.5z"/></g><path d="M108.2,337.7h10.2v100.5h-10.2V337.7z" class="C"/><path d="M114.6,337.7h7v100.5h-7V337.7z" class="G"/><path d="M36,337.7h10.2v100.5H36V337.7z" class="C"/><path d="M42.3,337.7h7v100.5h-7V337.7z" class="G"/><path d="M135.6,337.7h10.2v100.5h-10.2V337.7z" class="C"/><path d="M141.8,337.7h7v100.5h-7V337.7z" class="G"/><path d="M36,325.3h78.9v12.5H36V325.3z" class="C"/><path fill="#e0e0e0" d="M103.9,43.5h305.3v169.9H103.9V43.5z"/><path d="M105.5,43.5H426v169.9H105.5V43.5z" class="H"/><path d="M420.8,48.7v159.5H110.7V48.7H420.8z" class="F"/><path d="M236.3 208.2l58.5-159.5h-96.6l-58.5 159.5h96.6zm92.9 0l58.5-159.5h-72.9l-58.5 159.5h72.9z" class="H"/><path d="M480,275.9h26v162.3h-26V275.9z" class="C"/><path d="M499.2 438.3h6.8v-12.5h-14l7.2 12.5z" class="I"/><path d="M240.8,275.9h26v162.3h-26V275.9z" class="C"/><path d="M260.8 275.9H506v159H260.8v-159z" class="I"/><path d="M501.3 327.2H265.4v-44.9h235.9v44.9zm-234.6-1.3H500v-42.3H266.7v42.3zm193.1-21.8H311.6c-6.9 0-13.5-5.6-18.2-15.2l-.5-1h185.5l-.5 1c-4.5 9.6-11.2 15.2-18.1 15.2h0zM295 289.3c4.4 8.6 10.4 13.6 16.5 13.6h148.3c6.2 0 12.1-4.9 16.5-13.6H295z" class="C"/><path d="M267.6 438.3h-6.8v-12.5h14l-7.2 12.5z" class="I"/><g class="C"><path d="M501.3 377.8H265.4v-44.9h235.9v44.9zm-234.6-1.2H500v-42.3H266.7v42.3zm193.1-21.8H311.6c-6.9 0-13.5-5.6-18.2-15.2l-.5-1h185.5l-.5 1c-4.5 9.6-11.2 15.2-18.1 15.2h0zm-164.8-15c4.4 8.6 10.4 13.6 16.5 13.6h148.3c6.2 0 12.1-4.9 16.5-13.6H295zm206.3 88.7H265.4v-44.9h235.9v44.9zm-234.6-1.4H500v-42.3H266.7v42.3zm193.1-21.7H311.6c-6.9 0-13.5-5.6-18.2-15.2l-.5-1h185.5l-.5 1c-4.5 9.6-11.2 15.2-18.1 15.2h0zM295 390.5c4.4 8.6 10.4 13.6 16.5 13.6h148.3c6.2 0 12.1-4.9 16.5-13.6H295zM92.8 297.4v3.2h-2L89 325.3H64.6l-1.7-24.7h-2v-3.2h31.9zM84.7 236c-2.1-14.7-21.9-18.9-47.1-19.4-23.9-.5-31.6-9-31.6-9s.1 34.4 34.7 46.8c32.8 11.8 46.1-3.6 44-18.4zm-12.2 33.4c.4-6.1 10.1-17.2 33.3-12.1 16.8 3.6 23-5.1 23-5.1s-1.6 24.6-26.9 32c-23.8 7.1-30.2-4.1-29.4-14.8h0z"/><path d="M77.8 306.6c.3 0 .5-.1.7-.3 1.7-2 .3-6.7-1.6-13.4-2.4-8.5-5.5-19-2.9-26.7 1.5-4.3 3.2-8.1 5-11.8 3.6-7.7 6.8-14.4 4.2-21.4-.2-.4-.7-.7-1.1-.5H82c-.4.2-.7.7-.5 1.1v.1c2.3 6.3-.5 12.3-4.1 19.9-1.7 3.5-3.6 7.6-5.1 12-2.7 8.2.4 19 2.9 27.7 1.5 5.2 3 10.4 2 11.7-.3.4-.3 1 .1 1.3.1.3.3.3.5.3z"/></g><ellipse cx="260.8" cy="475.2" rx="244.7" ry="14.3" class="H"/><g class="B"><path d="M260.9 410.4H75.8l-10-297.5h185l10.1 297.5z"/><path d="M270.1 401.2h-185L74.9 103.7H260l10.1 297.5z"/></g><path opacity=".3" d="M270.1 401.2h-185L74.9 103.7H260l10.1 297.5z" class="F"/><ellipse transform="matrix(.7011 -.7131 .7131 .7011 -83.8486 177.957)" cx="170.3" cy="189" rx="51.2" ry="52.9" class="B"/><path d="M213.3 189c.3 7.4-1.4 14.4-4.5 20.4-6.8 13.4-20.7 22.5-37 22.5s-30.9-9.1-38.5-22.5c-3.5-6.1-5.7-13.1-5.9-20.4-.8-23.7 17.8-43 41.5-43 23.7.1 43.6 19.2 44.4 43h0z" class="F"/><g class="B"><path opacity=".6" d="M208.8 209.5c-6.8 13.4-20.7 22.5-37 22.5s-30.9-9.1-38.5-22.5c10.5-7.2 23.4-11.4 37.4-11.4 13.9-.1 27.1 4.1 38.1 11.4z"/><ellipse transform="matrix(.7011 -.7131 .7131 .7011 -73.5209 173.2453)" opacity=".6" cx="169.9" cy="174.3" rx="18.8" ry="19.4"/></g><path d="M233 293.5H114.9l-.8-23.4h118.1l.8 23.4zm1.3 41.8h-118l-.8-23.4h118l.8 23.4z" class="F"/><path d="M188.8 315.1l-28.4 3.9c-1.2.2-2 1.3-1.8 2.3l3.7 19c.2 1.2 1.4 2 2.5 1.8l28.4-3.9c1.2-.2 2-1.2 1.8-2.3l-3.7-19c-.1-1.1-1.3-2-2.5-1.8zm-8.2 19.4l-5.2.7-.5-6.2c-1.1-.5-1.9-1.5-2.1-2.6-.4-1.9.9-3.6 2.8-3.8 2-.3 3.7 1.1 4.1 2.9.2 1.1-.2 2.2-1 3l1.9 6zm5.4-20.3h0c-1.1.1-2.1-.6-2.2-1.6l-.4-1.9c-1-5.2-6-9-11.2-8.6-5.7.5-9.5 5.5-8.4 10.9l.4 2.1c.2 1-.5 2-1.6 2.1h0c-1.1.1-2.1-.6-2.2-1.6l-.4-1.9c-1.4-7.1 3.1-14.1 10.4-15.3 7.6-1.4 15.2 3.8 16.7 11.3l.4 2.1c.2 1.3-.4 2.2-1.5 2.4h0zm28.9 54H138l-.5-15.2h76.9l.5 15.2z" class="B"/><path d="M177.8 281.7c.1 2.3-1.8 4.3-4.1 4.3s-4.4-2-4.4-4.3c-.1-2.3 1.8-4.3 4.1-4.3s4.4 2 4.4 4.3zm-18.5 0c.1 2.3-1.8 4.3-4.1 4.3s-4.4-2-4.4-4.3c-.1-2.3 1.8-4.3 4.1-4.3s4.4 2 4.4 4.3zm-18.4 0c.1 2.3-1.8 4.3-4.1 4.3s-4.4-2-4.4-4.3c-.1-2.3 1.8-4.3 4.1-4.3s4.3 2 4.4 4.3zm55.4 0c.1 2.3-1.8 4.3-4.1 4.3s-4.4-2-4.4-4.3c-.1-2.3 1.8-4.3 4.1-4.3s4.3 2 4.4 4.3zm18.5 0c.1 2.3-1.8 4.3-4.1 4.3s-4.4-2-4.4-4.3c-.1-2.3 1.8-4.3 4.1-4.3 2.2 0 4.3 2 4.4 4.3z" class="D"/><g class="E"><path d="M370.3 167.1c1.8 2.7 3.1 5.5 4.7 8.2l4.1 8.4c2.6 5.7 4.9 11.6 6.6 17.9l.9 3.5.1.6.2 1c.4 2.6 0 4.8-.4 6.7-1 3.8-2.4 6.8-4.1 9.7-3.3 5.8-7.1 10.5-11.6 15.2l-5.5-4.2c2.7-5.2 5.4-10.5 7.3-15.7 1-2.5 1.8-5.2 2-7.3.1-1.1 0-2-.1-2.3l-.5-1.6c-.2-.7-.4-1.3-.7-2-1.9-5.3-4.3-10.5-6.8-15.7s-5.4-10.4-8.2-15.4l12-7z"/><path d="M366.7 232.4l-6 3.2 6.8 8s4.3-2.9 4.5-7.3l-5.3-3.9z"/><path d="M352.7 240.5l7.4 5.9 7.5-2.7-6.8-8-8.1 4.8z"/></g><path d="M327.6 124.5c-.2.7-.7 1.3-1.2 1.2s-.8-.8-.6-1.5.7-1.3 1.2-1.2c.5 0 .7.7.6 1.5z" class="D"/><path fill="#ff5652" d="M327 125.7s-2.5 3.8-4.7 5.5c1.1 1.5 3.3 1.4 3.3 1.4l1.4-6.9z"/><path d="M324.7 151.3l.1-8.5 11.3 1.4s-.2 7.3-6.5 9.5l-4.9-2.4zm3.2-14.7l8 2.2.1 5.3-11.3-1.4 3.2-6.1z" class="E"/><path opacity=".2" d="M335.9 138.9l-8-2.2-1.6 2.9c.2 5.1 3.2 9.2 7.3 11 2.2-2.9 2.3-6.5 2.3-6.5v-5.2z"/><path d="M331 121c.1 0 .2 0 .3-.1.2-.2.2-.4 0-.6-1.7-1.8-3.6-1.5-3.7-1.5-.2 0-.4.3-.4.5s.3.4.5.4h0c.1 0 1.7-.2 2.9 1.2.2.1.3.1.4.1z" class="D"/><path d="M347.7 137.7c-1.3 6.7-2.1 16 2.5 20.5 0 0-1.9 6.8-14.3 6.8-13.7 0-6.5-6-6.5-6 5.7-1.8 5.7-8.3 4.3-13.5l14-7.8z" class="E"/><g class="B"><path d="M352.8 162.6c1.2-1.8 1.2-7.2-.1-8.1-2.1-1.6-11.1-2-23.2.9 1.3 5.3-1.5 8.1-1.5 8.1l24.8-.9zm40.7 309.3c-.9.2-1.9.3-2.2-.1-.2-.2-.4-.5-.2-1 .1-.3.3-.5.6-.7 1.3-.6 4.1.6 4.2.6s.1.1.1.2 0 .2-.1.2c-.5.3-1.4.6-2.4.8zm-1.5-1.5c-.1 0-.2 0-.3.1-.2.1-.3.2-.3.4-.1.4 0 .5.1.6.5.4 2.3 0 3.6-.5-.8-.3-2.2-.7-3.1-.6h0z"/><path d="M395.7 471.2h0c-1.2-.3-3.3-1.9-3.4-2.9 0-.2.1-.5.6-.7.3-.1.7-.1 1 .1 1.3.6 2 3.1 2.1 3.2-.1.1-.1.2-.3.3.1-.1.1 0 0 0zm-2.5-3.2c-.1 0-.1 0 0 0-.4.1-.4.3-.4.3 0 .6 1.5 1.9 2.5 2.3-.3-.8-.9-2.1-1.7-2.5-.1-.1-.2-.2-.4-.1h0zm-67.3 5.4c-1.2 0-2.3-.2-2.7-.7-.1-.2-.2-.5 0-1 .1-.3.4-.4.7-.5 1.6-.4 4.7 1.4 4.9 1.5.1 0 .1.1.1.2s-.1.2-.2.2c-.6.2-1.7.3-2.8.3h0zm-1.4-1.7c-.2 0-.3 0-.4.1-.2.1-.3.2-.4.3-.2.3-.1.4 0 .5.4.6 2.7.6 4.5.4-1-.5-2.7-1.3-3.7-1.3h0z"/><path d="M328.7 473.2s-.1-.1 0 0c-1.2-.5-3.4-2.5-3.2-3.5 0-.2.2-.6.8-.6.5 0 .9.1 1.2.4 1.2 1 1.4 3.4 1.5 3.5-.1.1-.1.2-.3.2.1-.1 0 0 0 0zm-2.3-3.8h0c-.5 0-.5.2-.5.2-.1.6 1.4 2.1 2.5 2.8-.1-.7-.5-2.2-1.2-2.8-.3-.1-.5-.2-.8-.2z"/></g><path d="M338.7 472.9h-9.2l-.9-21.2h9.2l.9 21.2zm67.3-4.2l-9 2-9-19.8 9-2 9 19.8z" class="E"/><path d="M396.1 469.8l10.1-2.1c.4-.1.8.1.9.5l3.5 7.6c.4.8-.1 1.7-1 1.9l-9.7 1.9-12.6 2.9c-3.7.8-5.1-2.8-3.6-3.5 6.5-3 9.3-5.7 11.1-8.1.3-.6.8-1 1.3-1.1h0zm-66.5 2.1h10c.4 0 .7.3.8.6l1.9 8.1c.2.9-.5 1.7-1.3 1.7l-13.4-.3c-5.3 0-9.9.3-16.1.3-3.8 0-4.8-3.8-3.2-4.1 7.1-1.6 13-1.8 19.2-5.6.6-.3 1.4-.7 2.1-.7h0z" class="D"/><path d="M366.6 160.2c8.6 2 15.6 23.9 15.6 23.9L365 197.3s-6.3-6-9.2-16.9c-2.8-11.6 2.1-22.2 10.8-20.2z" class="B"/><path d="M366.6 160.2c8.6 2 15.6 23.9 15.6 23.9L365 197.3s-6.3-6-9.2-16.9c-2.8-11.6 2.1-22.2 10.8-20.2z"/><path d="M321.5 186.3l-6.4 6.4-3.4 3.1-1.8 1.6-.4.4c-.2.2-.5.4-.8.6-.6.4-1.2.9-2.5 1.5-.7.3-1.6.6-3.1.7-.8 0-1.8-.1-2.7-.5s-2-1-2.6-1.7c-1.4-1.4-1.8-2.5-2.1-3.4-.3-.8-.3-1.5-.4-2-.1-1 0-1.7 0-2.3l.2-1.7c.4-2.1.9-3.6 1.5-5.3.6-1.6 1.3-3.1 2.1-4.7.8-1.7 1.7-2.8 2.4-4.3 3.2-5.4 7-10.3 11-14.9 4.1-4.6 8.4-8.8 13.4-12.7l4.8 5c-3.3 4.5-6.6 9.4-9.8 14.1-3 4.8-5.9 9.7-8.3 14.6-.6 1.3-1.3 2.5-1.7 3.6-.5 1.1-.9 2.3-1.3 3.5l-.8 3.3v.5c0 .1 0 .2 0-.1 0-.2 0-.4-.2-.9s-.4-1.3-1.5-2.4c-.5-.5-1.4-1.1-2.1-1.4a6.8 6.8 0 0 0-2.1-.4c-1.2 0-1.8.3-2.1.4-.7.3-.7.4-.7.3l.5-.5 4.7-4.4c2.1-2 4.1-4 6.1-6l10.1 10z" class="E"/><path opacity=".2" d="M359.3 176.4c4.7 4.6 6.2 13 6.5 20.3l-.8.6s-6.3-6-9.2-16.9c-.2-.7-.3-1.4-.5-2.1l4-1.9z"/><use xlink:href="#B" class="B"/><use xlink:href="#B"/><path opacity=".2" d="M319.9 184l-8.9-2.1c-.3 5.4-.3 12 .1 20.2 4.1-4.6 9.4-11.9 8.8-18.1zm8.8 267.8l.5 10.9h9.2l-.5-10.9h-9.2zM397 449l-9 1.9 4.7 10.3 8.9-2L397 449z"/><path d="M352 127.8c-2.3 8.8-3.3 14.1-8.7 17.7-8.1 5.5-18.3-.8-18.7-10.2-.3-8.4 3.6-21.4 13.1-23.1 9.3-1.7 16.6 6.8 14.3 15.6z" class="E"/><g class="D"><path d="M331.5 128.2c-.4-1.2-2.4-10.3-.6-12.6 2-2.3 23.6-.7 26.8 2.5 5.3 5.3 1.7 9.9-4.2 15.9-4.4 4.5-4.6 9.7-6.7 10.4-3.9 1.3-9.9.1-11-4.1-1.3-4.1-4.3-12.1-4.3-12.1h0z"/><path d="M355.1 107.7c-7.7-3.2-22.1.4-29.8-1.6-.3 4 2.1 10.4 9.9 12.2 0 0 11 2.1 19.5 1.8 8.5-.2 6.9-9.6.4-12.4z"/><path d="M356.3 118.4s4.8.5 8.1-1.6c1.5 3.4-6.4 4.4-8.1 1.6z"/></g><path d="M335.7 128.5c-.1 2.3-1.3 4.6-2.5 6.1-2 2.2-4.1.9-4.4-1.9-.3-2.4.3-6.4 2.7-7.7 2.3-1.1 4.3.9 4.2 3.5h0z" class="E"/><path d="M332.2 239.8s10.4 70 16.1 96.3C354.5 364.8 388 460 388 460l16.4-3.5s-23.4-77.4-28.7-117.7l-12-98.8-31.5-.2z" class="B"/><path d="M384.1 454.5c-.1 0 3 6 3 6l18.5-4-1.6-5.6-19.9 3.6z" class="D"/><path opacity=".3" d="M338.7 264.8c12 2.3 10.7 47.2 9.3 70.3-3.5-16.3-8.5-47.7-12-69.9a3.64 3.64 0 0 1 2.7-.4z"/><path d="M314.8 239.8l-.3 96.5c1.1 29.1 11.2 124.2 11.2 124.2h15.5l1.3-122.1c.8-31.2 4.5-98.6 4.5-98.6h-32.2z" class="B"/><path d="M322.7 454.4c-.1 0 .9 6.4.9 6.4h18.8l.5-5.8-20.2-.6z" class="D"/><use xlink:href="#C" class="B"/><use xlink:href="#C"/><ellipse cx="432.8" cy="52.5" rx="47" ry="30" class="B"/><path d="M415.8 67.6c-2.6 0-5.2-.8-7.4-2.2-2.9-2.1-5-5.1-5.6-8.7-1.2-6.7 3.3-13.6 10.1-15h0c5.6-1.3 11.1 1.1 14.1 5.9l30.2-6.3c2.4-.5 4.9 1 5.6 3.2.3 1.2.1 2.4-.5 3.5-.7 1.1-1.8 1.8-2.9 2.1l-.8.2c-.2 0-.4.2-.6.4-.1.2-.1.5 0 .7l.5 1.4c.4 1 0 2-.8 2.5-.7.4-1.1 1.1-1.2 1.9-.1.9-.7 1.7-1.6 1.9l-.6.1c-.9.2-1.7-.2-2.1-1.1-.6-1-1.7-1.5-2.7-1.2-1.1.2-1.9 1.1-2.1 2.1-.1.9-.7 1.7-1.6 1.8l-.6.1c-.9.2-1.7-.2-2.1-1.1-.4-.7-1.1-1.1-1.9-1.3-1-.1-1.7-1-1.8-2l-.1-1.5c0-.2-.1-.5-.3-.6-.2-.2-.4-.2-.7-.2l-9.6 2c-.8 5.5-4.9 9.8-10.4 10.9-.8.4-1.7.5-2.5.5h0zm-2.7-24.7c-6.1 1.4-10.1 7.4-9.1 13.6.6 3.2 2.3 6 5 7.8 2.6 1.9 5.9 2.4 9.1 1.9 5.1-1.1 8.8-5.2 9.4-10.3l.1-.5 10.5-2.1c.6-.1 1.3 0 1.8.4s.8 1 .8 1.6l.1 1.5c0 .4.3.7.6.8 1.2.2 2.1.9 2.7 1.9.1.3.4.5.8.4l.6-.1c.4-.1.5-.4.6-.7.2-1.7 1.5-2.9 3-3.3 1.7-.3 3.2.4 4.1 1.9.1.3.4.5.8.4l.6-.1c.4-.1.5-.4.5-.7.1-1.2.8-2.1 1.8-2.8.3-.2.4-.6.3-1l-.5-1.4c-.2-.6-.2-1.3.1-1.8.3-.6.8-.9 1.5-1.1l.8-.2c.9-.2 1.7-.7 2.1-1.5s.6-1.7.4-2.5c-.4-1.7-2.2-2.6-4-2.3l-31.2 6.4-.2-.4c-2.7-4.8-7.9-7-13.1-5.8h0zm2.7 19.9c-1.7 0-3.2-.5-4.6-1.4-1.9-1.3-3.1-3.1-3.6-5.3s0-4.4 1.2-6.3c1.3-1.9 3.1-3.1 5.3-3.6 2.1-.5 4.4 0 6.2 1.2 1.9 1.3 3.1 3.1 3.6 5.3.5 2.1 0 4.4-1.2 6.3-1.3 1.9-3.1 3.1-5.3 3.6h0c-.5.1-1 .2-1.6.2h0zm0-15.4c-.5 0-1 .1-1.5.2-1.9.4-3.4 1.5-4.5 3s-1.4 3.4-1 5.3 1.5 3.4 3 4.5c1.6 1.1 3.4 1.4 5.3 1h0c1.9-.4 3.4-1.5 4.5-3 1.1-1.6 1.4-3.4 1-5.3s-1.5-3.4-3-4.5c-1.1-.9-2.5-1.2-3.8-1.2z" class="F"/><g class="B"><ellipse opacity=".6" cx="394.5" cy="90.2" rx="15.4" ry="9.9"/><ellipse opacity=".3" cx="369.9" cy="100.1" rx="6.3" ry="4"/></g><defs ><path id="B" d="M312.3 169.4c-1.9 9.9-3 30.3 2.4 70.5h49c.3-7.5-4.4-44.2 2.8-79.7 0 0-8.4-1.7-16.4-2.1-6.3-.3-15.3-.5-20.8 0-2.3.2-4.6.6-6.5.9-5.3 1-9.4 5.1-10.5 10.4h0z"/><path id="C" d="M331.6 172.4c4.4 11.8-21.4 25.8-21.4 25.8L299 183.8s7.4-14.8 16.6-21.5c11.3-8.3 12.7 1.1 16 10.1h0z"/></defs></svg>