<svg xmlns="http://www.w3.org/2000/svg" xmlns:xlink="http://www.w3.org/1999/xlink" viewBox="0 0 403.2 505.9"><style><![CDATA[.B{fill:#fff}.C{fill:#407bff}.D{opacity:.2}.E{fill:#f0f0f0}.F{fill:#f5f5f5}]]></style><g fill="#e0e0e0"><path d="M0 28.4h112.9v9.4H0z" class="D"/><path d="M0 28.4h112.9v94.8H0z" class="D"/></g><g class="D"><path d="M100 0h37.3v505.9H100z" class="F"/><path d="M109.8 0h17.6v505.9h-17.6z" class="E"/><path d="M120 0h37.3v505.9H120z" class="F"/><path d="M129.8 0h17.6v505.9h-17.6z" class="E"/><path d="M138.6 0h37.3v505.9h-37.3z" class="F"/><path fill="#fafafa" d="M245.6 20.5h143.1v144.6H245.6z"/><path d="M286.7 128.8h60.9c2.9 0 5.2-2.3 5.2-5.2V62c0-2.9-2.3-5.2-5.2-5.2h-60.9c-2.9 0-5.2 2.3-5.2 5.2v61.7c0 2.8 2.3 5.1 5.2 5.1z" class="E"/><path d="M320.2 93.6h42.6c2 0 3.6-1.6 3.6-3.6V46.9c0-2-1.6-3.6-3.6-3.6h-42.6c-2 0-3.6 1.6-3.6 3.6V90c0 2 1.6 3.6 3.6 3.6z" class="B"/><path d="M289.3 147.7h29.5c1.4 0 2.5-1.1 2.5-2.5v-29.9c0-1.4-1.1-2.5-2.5-2.5h-29.5c-1.4 0-2.5 1.1-2.5 2.5v29.9c0 1.4 1.1 2.5 2.5 2.5zM237.6 20.5h8v144.6h-8z" class="E"/></g><path d="M323.3 76.9l-1.7-.1c.4-6.5-1.8-12.6-6.2-17.3-4.4-4.6-10.3-7.2-16.8-7.2h-29.4v-1.7h29.4c7 0 13.4 2.7 18 7.7 4.8 5.1 7.1 11.6 6.7 18.6zm-3.362 27l.94-15.472 1.697.103-.94 15.472z" class="C"/><path fill="#1267cc" d="M272.8 475.2H76.7c-11 0-19.5-9-18.8-20.1L81.3 76.5c.7-11 10.3-20.1 21.3-20.1h196.1c11 0 19.5 9 18.8 20.1l-23.4 378.6c-.7 11-10.3 20.1-21.3 20.1z"/><path d="M155.6 142.7h-42.8c-6.3 0-11.2-5.2-10.8-11.5l2.2-35.6c.4-6.3 5.9-11.5 12.2-11.5h42.8c6.3 0 11.2 5.2 10.8 11.5l-2.2 35.6c-.4 6.3-5.9 11.5-12.2 11.5zM168 441.8c3.6 0 6.6-2.9 6.8-6.4l4.5-73.4c.2-3.6-2.5-6.4-6-6.4H64l-5.3 86.2H168z" class="D"/><use xlink:href="#B" class="C"/><g class="B"><use xlink:href="#B" opacity=".4"/><path d="M298.2 64.9c3.1 0 5.9 1.2 8 3.4s3.1 5.1 2.9 8.2l-8.6 139.3c-.2 2.7-2.5 4.8-5.1 4.8h-210c-1.2 0-2.4-.5-3.2-1.3-.8-.9-1.2-2-1.2-3.3l8.6-139.3c.4-6.5 6-11.8 12.5-11.8h196.1m0-1.7H102.1c-7.4 0-13.7 6-14.2 13.4l-8.6 139.3c-.2 3.5 2.5 6.4 6 6.4h210c3.5 0 6.6-2.9 6.8-6.4l8.6-139.3c.5-7.4-5.1-13.4-12.5-13.4h0zm-105 175.4H86.4c-4.7 0-8.7 3.8-9 8.4L73 318.5c-.3 4.7 3.3 8.4 7.9 8.4h106.8c4.7 0 8.7-3.8 9-8.4l4.4-71.4c.3-4.7-3.3-8.5-7.9-8.5zm-32.1 103.6H54.4c-4.7 0-8.7 3.8-9 8.4L41 422.1c-.3 4.7 3.3 8.4 7.9 8.4h106.8c4.7 0 8.7-3.8 9-8.4l4.4-71.4c.2-4.7-3.3-8.5-8-8.5z"/></g><path d="M246.3 291.6c-4 0-7.5 3.3-7.8 7.3l-3.8 62c-.2 4 2.8 7.3 6.9 7.3h57.9l4.7-76.6h-57.9z" class="D"/><use xlink:href="#C" class="C"/><use xlink:href="#C" opacity=".7" class="B"/><g opacity=".4"><use xlink:href="#D" class="C"/><use xlink:href="#D" x="-2" opacity=".57" class="B"/></g><use xlink:href="#E" class="C"/><use xlink:href="#E" opacity=".4" class="B"/><ellipse transform="matrix(.7179 -.6961 .6961 .7179 -95.3785 193.271)" cx="190.8" cy="214.3" rx="62.2" ry="58.5" class="C"/><ellipse transform="matrix(.7179 -.6961 .6961 .7179 -95.3783 193.2709)" cx="190.8" cy="214.3" rx="56.6" ry="53.2" class="B"/><g class="C"><ellipse transform="matrix(.7179 -.6961 .6961 .7179 -84.8129 189.794)" cx="191.8" cy="199.5" rx="20.8" ry="19.6"/><path d="M190 228.1c-15.8 0-29.9 6.1-37.6 15.2 7.2 11.8 20.2 19.6 35.5 19.6s29.2-7.8 37.9-19.6c-6.7-9.1-20.1-15.2-35.8-15.2z"/></g><path d="M147.8 134.9H105c-6.3 0-11.2-5.2-10.8-11.5l2.2-35.6c.4-6.3 5.9-11.5 12.2-11.5h42.8c6.3 0 11.2 5.2 10.8 11.5l-2.2 35.6c-.4 6.3-5.9 11.5-12.2 11.5z" class="B"/><path d="M140.1 105.6l-21.6-14.4-1.7 28.8z" class="C"/><g class="B"><path d="M286.5 108H184.4c-2.7 0-4.8-2.2-4.6-4.9l.4-6.2c.2-2.7 2.5-4.9 5.2-4.9h102.1c2.7 0 4.8 2.2 4.6 4.9l-.4 6.2c-.2 2.7-2.5 4.9-5.2 4.9zm-1.7 26.9H182.7c-2.7 0-4.8-2.2-4.6-4.9l.4-6.2c.2-2.7 2.5-4.9 5.2-4.9h102.1c2.7 0 4.8 2.2 4.6 4.9l-.4 6.2c-.2 2.7-2.5 4.9-5.2 4.9zm33.8 167.7h-81.8c-1.8 0-3.1-1.4-3-3.2l.1-2.3a3.4 3.4 0 0 1 3.4-3.2h81.8c1.8 0 3.1 1.4 3 3.2l-.1 2.3c0 1.7-1.6 3.2-3.4 3.2zm-1.1 18.6h-81.8c-1.8 0-3.1-1.4-3-3.2l.1-2.3a3.4 3.4 0 0 1 3.4-3.2H318c1.8 0 3.1 1.4 3 3.2l-.1 2.3c-.1 1.7-1.6 3.2-3.4 3.2zm-1.2 18.6h-81.8c-1.8 0-3.1-1.4-3-3.2l.1-2.3a3.4 3.4 0 0 1 3.4-3.2h81.8c1.8 0 3.1 1.4 3 3.2l-.1 2.3c0 1.8-1.6 3.2-3.4 3.2z"/><ellipse transform="matrix(.7179 -.6961 .6961 .7179 -240.6612 311.2959)" cx="263.8" cy="452.6" rx="8.1" ry="7.6"/><use xlink:href="#F"/><path d="M275.1 397c-.3 4.3-4 7.8-8.3 7.8s-7.6-3.5-7.4-7.8c.3-4.3 4-7.8 8.3-7.8s7.7 3.5 7.4 7.8z"/><ellipse transform="matrix(.7179 -.6961 .6961 .7179 -247.3514 294.8035)" cx="240.1" cy="452.6" rx="8.1" ry="7.6"/><use xlink:href="#F" x="-23.7"/><path d="M251.4 397c-.3 4.3-4 7.8-8.3 7.8s-7.6-3.5-7.4-7.8c.3-4.3 4-7.8 8.3-7.8 4.4-.1 7.7 3.5 7.4 7.8z"/></g><defs ><path id="B" d="M53.7 322.4H20.2c-2.5 0-4.6 2-4.7 4.5l-2.3 37.7c-.2 2.5 1.7 4.5 4.2 4.5h33.4c2.5 0 4.6-2 4.7-4.5l2.3-37.7c.2-2.5-1.7-4.5-4.1-4.5z"/><path id="C" d="M326.2 278h-93.8c-4.1 0-7.6 3.3-7.9 7.4l-3.9 62.7c-.3 4.1 2.9 7.4 7 7.4h93.8c4.1 0 7.6-3.3 7.9-7.4l3.9-62.7c.2-4.1-2.9-7.4-7-7.4z"/><path id="D" d="M391.2 176.6h-55.6c-4.1 0-7.6 3.3-7.9 7.4l-3.9 62.7c-.3 4.1 2.9 7.4 7 7.4h55.6c4.1 0 7.6-3.3 7.9-7.4l3.9-62.7c.3-4.1-2.9-7.4-7-7.4z"/><path id="E" d="M345.7 370.2h-23.1c-1.7 0-3.2 1.4-3.3 3.1l-1.6 26.1c-.1 1.7 1.2 3.1 2.9 3.1h23.1c1.7 0 3.2-1.4 3.3-3.1l1.6-26.1c.1-1.7-1.2-3.1-2.9-3.1z"/><path id="F" d="M273.4 424.8c-.3 4.3-4 7.8-8.3 7.8s-7.6-3.5-7.4-7.8c.3-4.3 4-7.8 8.3-7.8 4.4-.1 7.7 3.4 7.4 7.8z"/></defs></svg>